<svg width="13" height="63" viewBox="0 0 13 63" fill="none" xmlns="http://www.w3.org/2000/svg">
<path d="M10.8613 9.21623C7.32531 10.1329 4.69223 13.647 4.69214 17.8409C4.69206 21.5874 6.79299 24.7904 9.76096 26.0847C11.3029 26.7567 12.6919 28.1849 12.6919 30.0194L12.6918 32.2337C12.6918 34.0683 11.3028 35.4965 9.76074 36.1685C6.79271 37.4628 4.69164 40.6657 4.69155 44.4123C4.69146 48.6062 7.32438 52.1202 10.8604 53.0369C11.8534 53.2938 12.6913 54.1851 12.6913 55.3132C12.6912 59.0764 9.93616 62.1266 6.53716 62.1266H0.691162L0.692532 0.12659H6.53853C9.93753 0.12659 12.6925 3.17677 12.6924 6.93995C12.6924 8.06812 11.8543 8.95937 10.8613 9.21623Z" 
fill="#EB5E28"/>
</svg>
