<svg width="31" height="32" viewBox="0 0 31 32" fill="none" xmlns="http://www.w3.org/2000/svg">
<path d="M8.5042 14.7835L2.77236 4.57078C2.11328 3.39647 1.78374 2.80932 1.83928 2.32859C1.88773 1.90917 2.11146 1.5295 2.45554 1.28278C2.84992 1 3.52544 1 4.87649 1H8.24325C8.74536 1 8.99641 1 9.2216 1.0722C9.42086 1.13609 9.60456 1.24062 9.76099 1.37914C9.93777 1.53568 10.0652 1.75106 10.3201 2.18181L15.8333 11.5L21.3464 2.18181C21.6013 1.75106 21.7287 1.53568 21.9055 1.37914C22.0619 1.24062 22.2456 1.13609 22.4449 1.0722C22.6701 1 22.9211 1 23.4233 1H26.79C28.1411 1 28.8166 1 29.211 1.28278C29.555 1.5295 29.7788 1.90917 29.8272 2.32859C29.8828 2.80932 29.5532 3.39647 28.8941 4.57078L23.1623 14.7835M13.5735 19L15.8333 17.5V25M13.9501 25H17.7164M22.7574 14.3557C26.5815 18.1633 26.5815 24.3367 22.7574 28.1443C18.9333 31.9519 12.7332 31.9519 8.90909 28.1443C5.08499 24.3367 5.08499 18.1633 8.90909 14.3557C12.7332 10.5481 18.9333 10.5481 22.7574 14.3557Z" stroke="white" stroke-width="2" stroke-linecap="round" stroke-linejoin="round"/>
</svg>
