<svg width="33" height="32" viewBox="0 0 33 32" fill="none" xmlns="http://www.w3.org/2000/svg">
<path d="M16.6666 20.5C11.6961 20.5 7.66663 16.4706 7.66663 11.5V3.16667C7.66663 2.5459 7.66663 2.23551 7.75709 1.98697C7.90874 1.57032 8.23695 1.24211 8.6536 1.09046C8.90214 1 9.21252 1 9.83329 1H23.5C24.1207 1 24.4311 1 24.6797 1.09046C25.0963 1.24211 25.4245 1.57032 25.5762 1.98697C25.6666 2.23551 25.6666 2.5459 25.6666 3.16667V11.5C25.6666 16.4706 21.6372 20.5 16.6666 20.5ZM16.6666 20.5V25M25.6666 4H29.4166C30.1155 4 30.465 4 30.7407 4.11418C31.1082 4.26642 31.4002 4.55843 31.5524 4.92597C31.6666 5.20163 31.6666 5.55109 31.6666 6.25V7C31.6666 8.39496 31.6666 9.09244 31.5133 9.66469C31.0972 11.2176 29.8842 12.4306 28.3313 12.8467C27.7591 13 27.0616 13 25.6666 13M7.66663 4H3.91663C3.21771 4 2.86826 4 2.5926 4.11418C2.22506 4.26642 1.93305 4.55843 1.78081 4.92597C1.66663 5.20163 1.66663 5.55109 1.66663 6.25V7C1.66663 8.39496 1.66663 9.09244 1.81996 9.66469C2.23606 11.2176 3.44903 12.4306 5.00194 12.8467C5.57419 13 6.27167 13 7.66663 13M9.83329 31H23.5C23.8681 31 24.1666 30.7015 24.1666 30.3333C24.1666 27.3878 21.7788 25 18.8333 25H14.5C11.5544 25 9.16663 27.3878 9.16663 30.3333C9.16663 30.7015 9.4651 31 9.83329 31Z" stroke="white" stroke-width="2" stroke-linecap="round" stroke-linejoin="round"/>
<path d="M19.5 4L20.1101 5.22027C20.3166 5.63325 20.4199 5.83974 20.5578 6.01868C20.6802 6.17746 20.8225 6.31981 20.9813 6.4422C21.1603 6.58013 21.3667 6.68337 21.7797 6.88987L23 7.5L21.7797 8.11013C21.3667 8.31663 21.1603 8.41987 20.9813 8.5578C20.8225 8.68019 20.6802 8.82254 20.5578 8.98132C20.4199 9.16026 20.3166 9.36675 20.1101 9.77973L19.5 11L18.8899 9.77973C18.6834 9.36675 18.5801 9.16026 18.4422 8.98132C18.3198 8.82254 18.1775 8.68019 18.0187 8.5578C17.8397 8.41987 17.6333 8.31663 17.2203 8.11013L16 7.5L17.2203 6.88987C17.6333 6.68337 17.8397 6.58013 18.0187 6.4422C18.1775 6.31981 18.3198 6.17746 18.4422 6.01868C18.5801 5.83974 18.6834 5.63325 18.8899 5.22027L19.5 4Z" fill="white"/>
<path d="M15.5 11L15.9358 11.8716C16.0833 12.1666 16.1571 12.3141 16.2556 12.4419C16.343 12.5553 16.4447 12.657 16.5581 12.7444C16.6859 12.8429 16.8334 12.9167 17.1284 13.0642L18 13.5L17.1284 13.9358C16.8334 14.0833 16.6859 14.1571 16.5581 14.2556C16.4447 14.343 16.343 14.4447 16.2556 14.5581C16.1571 14.6859 16.0833 14.8334 15.9358 15.1284L15.5 16L15.0642 15.1284C14.9167 14.8334 14.8429 14.6859 14.7444 14.5581C14.657 14.4447 14.5553 14.343 14.4419 14.2556C14.3141 14.1571 14.1666 14.0833 13.8716 13.9358L13 13.5L13.8716 13.0642C14.1666 12.9167 14.3141 12.8429 14.4419 12.7444C14.5553 12.657 14.657 12.5553 14.7444 12.4419C14.8429 12.3141 14.9167 12.1666 15.0642 11.8716L15.5 11Z" fill="white"/>
</svg>
