<svg width="33" height="32" viewBox="0 0 33 32" fill="none" xmlns="http://www.w3.org/2000/svg">
<path d="M9 9.33333V11.8333M24 9.33333V11.8333M14.8333 17.0002C16.1667 17.0002 17.3333 15.8335 17.3333 14.5002V9.33333M21.8337 21.3333C18.8337 24.3333 14.0003 24.3333 11.0003 21.3333M1.5 9L1.5 23C1.5 25.8003 1.5 27.2004 2.04497 28.27C2.52433 29.2108 3.28924 29.9757 4.23005 30.455C5.29961 31 6.69974 31 9.5 31H23.5C26.3003 31 27.7004 31 28.77 30.455C29.7108 29.9757 30.4757 29.2108 30.955 28.27C31.5 27.2004 31.5 25.8003 31.5 23V9C31.5 6.19974 31.5 4.79961 30.955 3.73005C30.4757 2.78924 29.7108 2.02434 28.77 1.54497C27.7004 1 26.3003 1 23.5 1L9.5 1C6.69974 1 5.29961 0.999999 4.23005 1.54497C3.28924 2.02433 2.52433 2.78924 2.04497 3.73005C1.5 4.79961 1.5 6.19974 1.5 9Z" stroke="white" stroke-width="2" stroke-linecap="round" stroke-linejoin="round"/>
</svg>
