<svg width="30" height="30" viewBox="0 0 30 30" fill="none" xmlns="http://www.w3.org/2000/svg">
<path d="M10.7118 2H19.3022C23.2425 2 25.2628 2.49489 26.3852 3.62005C27.5085 4.74599 28 6.77069 28 10.7118V19.3022C28 23.2424 27.5048 25.2627 26.3795 26.3852C25.2533 27.5085 23.2286 28 19.2882 28H10.6978C6.75765 28 4.73727 27.5048 3.6148 26.3795C2.49153 25.2533 2 23.2286 2 19.2882V10.6978C2 6.76514 2.49468 4.74402 3.62048 3.61958C4.74673 2.4947 6.77192 2 10.7118 2Z" stroke="#EB5E28" stroke-width="2"/>
<path d="M23.6044 20.9781H21.5618C20.789 20.9781 20.5566 20.3523 19.1706 18.9663C17.961 17.8001 17.45 17.6545 17.1434 17.6545C16.7206 17.6545 16.6044 17.7706 16.6044 18.3544V20.1913C16.6044 20.6883 16.4434 20.9794 15.1456 20.9794C13.886 20.8948 12.6647 20.5121 11.582 19.863C10.4993 19.2138 9.58639 18.3168 8.91836 17.2457C7.33239 15.2716 6.22888 12.9548 5.69556 10.4795C5.69556 10.1729 5.81176 9.89565 6.39556 9.89565H8.43676C8.96176 9.89565 9.15076 10.1295 9.35656 10.6685C10.3478 13.5861 12.039 16.1229 12.725 16.1229C12.9882 16.1229 13.103 16.0066 13.103 15.35V12.3457C13.0162 10.9751 12.2882 10.8588 12.2882 10.3632C12.2975 10.2325 12.3574 10.1106 12.4552 10.0233C12.5529 9.93601 12.6808 9.89022 12.8118 9.89565H16.0206C16.4588 9.89565 16.6044 10.1141 16.6044 10.6391V14.6935C16.6044 15.1317 16.7934 15.2773 16.925 15.2773C17.1882 15.2773 17.3912 15.1316 17.8728 14.6501C18.9072 13.3886 19.7523 11.9832 20.3816 10.4781C20.4459 10.2973 20.5676 10.1425 20.7281 10.0373C20.8886 9.93216 21.0791 9.88241 21.2706 9.89565H23.3132C23.925 9.89565 24.0552 10.2023 23.925 10.6391C23.1822 12.3029 22.2633 13.8822 21.1838 15.35C20.964 15.686 20.8758 15.861 21.1838 16.2544C21.3868 16.561 22.1022 17.1589 22.5838 17.7273C23.2836 18.4253 23.8648 19.233 24.3044 20.1185C24.4794 20.6869 24.1868 20.9781 23.6044 20.9781Z" fill="#EB5E28"/>
</svg>
