<svg width="128" height="54" viewBox="0 0 128 54" fill="none" xmlns="http://www.w3.org/2000/svg">
<g clip-path="url(#clip0_15_2501)">
<path d="M127.982 46.9442C127.973 50.6988 125.105 53.6772 121.385 53.9496C120.769 53.9944 120.149 53.9907 119.531 53.9907C107.202 53.9925 94.8719 53.9925 82.5422 53.9925C76.3783 53.9925 70.2125 53.9925 64.0486 53.9907H43.6025C31.6756 53.9907 19.7486 53.9925 7.82358 54C6.17356 54 4.61263 53.735 3.24102 52.7833C1.13441 51.3221 0.0226417 49.2768 0.0189296 46.7035C0.000369207 33.6126 -0.0144791 20.5218 0.0244977 7.4309C0.0393461 2.9746 3.15193 0.0149312 7.69366 0.013065C30.1146 0.00373443 52.5375 0.00746668 74.9603 0.00746668C90.0833 0.00746668 105.206 0.0167973 120.329 2.18667e-06C123.418 -0.00186394 125.816 1.19059 127.226 3.98791C127.683 4.89484 127.958 6.00145 127.961 7.01849C128.01 20.3277 128.011 33.6369 127.982 46.9442Z" fill="#005ED2"/>
<path d="M39.7249 31.0336C39.7174 30.9552 39.7082 30.8769 39.6989 30.7985C39.6877 30.7201 39.6766 30.6436 39.6618 30.5671C39.6488 30.4924 39.6321 30.4178 39.6154 30.3432C39.5986 30.2685 39.5782 30.1957 39.5578 30.123C39.5374 30.052 39.5151 29.9811 39.4929 29.9121C39.491 29.9083 39.491 29.9065 39.4891 29.9028C39.465 29.8356 39.439 29.7665 39.413 29.6993C39.3852 29.6322 39.3555 29.5631 39.324 29.4959C39.2646 29.3653 39.1977 29.2384 39.1235 29.1134C39.1216 29.1115 39.1216 29.1097 39.1179 29.1059C39.0808 29.0425 39.04 28.9809 38.9991 28.9193C38.9583 28.8577 38.9156 28.7961 38.8692 28.7364C38.8247 28.6767 38.7783 28.6189 38.73 28.561C38.6873 28.5088 38.6446 28.4584 38.5982 28.408C38.5426 28.3445 38.4832 28.2848 38.4219 28.2232C38.3867 28.1878 38.3495 28.1523 38.3106 28.115C38.2679 28.0758 38.2233 28.0366 38.1788 27.9974C38.1398 27.9657 38.1027 27.9321 38.0618 27.9004C37.9356 27.7959 37.802 27.6951 37.6609 27.6C37.6145 27.5682 37.5681 27.5384 37.5199 27.5067C37.5199 27.5048 37.518 27.5048 37.5162 27.5048C37.4679 27.4731 37.4197 27.4432 37.3695 27.4133C37.3194 27.3835 37.2693 27.3518 37.2174 27.3238C37.1134 27.2622 37.0076 27.2043 36.8981 27.1502C36.8424 27.1222 36.7867 27.0942 36.7311 27.0681C36.6772 27.042 36.6216 27.0159 36.5677 26.9916C36.564 26.9879 36.5603 26.986 36.5547 26.986C36.4972 26.9599 36.4415 26.9356 36.384 26.9114C36.3246 26.8852 36.2633 26.861 36.2039 26.8367C36.1427 26.8106 36.0815 26.7863 36.0183 26.7621C35.6731 26.6296 35.3112 26.5101 34.9493 26.4635C34.7822 26.4411 34.617 26.415 34.4574 26.3851C34.3832 26.3702 34.3089 26.3553 34.2347 26.3385C34.2254 26.3366 34.2143 26.3329 34.2031 26.331C34.1419 26.3161 34.0806 26.3011 34.0212 26.2862C33.9971 26.2806 33.973 26.2731 33.9507 26.2675C33.7354 26.2097 33.5275 26.1425 33.3271 26.066C33.2566 26.0399 33.1879 26.0119 33.1174 25.982C33.0487 25.9522 32.98 25.9223 32.9132 25.8906C32.8464 25.8607 32.7796 25.829 32.7127 25.7936C32.6478 25.76 32.5828 25.7264 32.5197 25.6909C32.4548 25.6555 32.3916 25.6181 32.3285 25.5808C32.2042 25.5043 32.0835 25.4259 31.9648 25.3419C31.9146 25.3065 31.8664 25.271 31.8181 25.2356C31.8014 25.2225 31.7847 25.2113 31.7699 25.1983C31.7216 25.1609 31.6734 25.1236 31.6251 25.0844C31.6195 25.0807 31.6158 25.077 31.6121 25.0751C31.5601 25.0322 31.5082 24.9893 31.4581 24.9463C31.291 24.7989 31.1295 24.6459 30.9755 24.4835C30.9272 24.4313 30.879 24.379 30.8326 24.3268C30.7806 24.2689 30.7305 24.2111 30.6804 24.1514C30.6321 24.0935 30.5839 24.0357 30.5375 23.9778C30.4966 23.9256 30.4558 23.8733 30.4168 23.8211C30.3797 23.7725 30.3426 23.7222 30.3073 23.6718C30.2702 23.6214 30.2331 23.571 30.1997 23.5187C30.1328 23.4254 30.0679 23.3284 30.0066 23.2295C29.9936 23.2108 29.9825 23.1922 29.9714 23.1735C29.9194 23.0933 29.8693 23.0112 29.821 22.9272C29.8006 22.8936 29.7821 22.86 29.7616 22.8245C29.7078 22.7331 29.6577 22.6417 29.6057 22.5465C29.5426 22.4271 29.4795 22.3058 29.4183 22.1826C29.3811 22.1098 29.344 22.0352 29.3032 21.9624C29.2846 21.9251 29.2642 21.8878 29.2438 21.8504C29.2382 21.8392 29.2308 21.828 29.2252 21.8168C29.1454 21.6732 29.0619 21.5313 28.9728 21.3895C28.9134 21.2925 28.8522 21.1992 28.7891 21.104C28.7297 21.0163 28.6703 20.9304 28.609 20.8446C28.5014 20.6916 28.39 20.5423 28.2749 20.3949C28.1951 20.2941 28.1153 20.1933 28.0337 20.0944C27.8555 19.8798 27.6717 19.6708 27.4843 19.4674C27.4304 19.4095 27.3785 19.3536 27.3209 19.2994C27.3098 19.2864 27.2968 19.2715 27.2801 19.2584C27.1539 19.1296 27.0221 19.0083 26.8885 18.8964C26.7586 18.7825 26.6268 18.6799 26.4931 18.5847C26.4913 18.581 26.4894 18.5791 26.4857 18.5791C26.3521 18.4821 26.2147 18.3925 26.0774 18.3141C26.0087 18.2731 25.94 18.2358 25.8695 18.1984C25.8008 18.1611 25.7303 18.1275 25.6598 18.0939C25.5911 18.0622 25.5206 18.0305 25.45 18.0025C25.3795 17.9745 25.309 17.9465 25.2385 17.9222C25.0955 17.8719 24.9545 17.8308 24.8116 17.7991C24.6687 17.7636 24.5257 17.7394 24.3828 17.7244C24.3104 17.717 24.2381 17.7114 24.1675 17.7058C23.3694 17.6573 22.5713 17.8681 21.8215 18.3477C21.389 18.6239 20.99 18.9654 20.6151 19.3349C20.5668 19.3816 20.5204 19.4282 20.4777 19.4749C20.3812 19.57 20.2884 19.6671 20.1975 19.766C19.9747 20.0048 19.7594 20.253 19.5478 20.4975C19.03 21.1003 18.6681 21.8448 18.2727 22.5465C18.0092 23.0149 17.7289 23.4628 17.4245 23.8752C17.4245 23.8752 17.4245 23.8758 17.4245 23.877C17.3856 23.9274 17.3466 23.9778 17.3076 24.0282C17.2686 24.0786 17.2296 24.129 17.1888 24.1775C17.109 24.2764 17.0273 24.3734 16.9438 24.4667C16.8176 24.6067 16.6877 24.7429 16.5522 24.8698C16.4612 24.9575 16.3684 25.0396 16.2738 25.118C16.2292 25.1553 16.1828 25.1927 16.1364 25.23C16.1309 25.2337 16.1272 25.2374 16.1216 25.2412C16.0808 25.271 16.0418 25.3028 16.0009 25.3326C15.9861 25.3438 15.9713 25.3531 15.9564 25.3643C15.9137 25.3942 15.871 25.4241 15.8265 25.4539C15.3086 25.8029 14.7166 26.0641 14.0298 26.2097C13.8962 26.2377 13.7589 26.2619 13.6178 26.2806C12.9218 26.3739 12.2313 26.6146 11.5799 26.8852C11.372 26.9711 11.1715 27.0644 10.9804 27.1633C10.9785 27.1633 10.9785 27.1652 10.9785 27.1652C10.8838 27.2137 10.791 27.2659 10.6982 27.3182C10.5163 27.4227 10.3419 27.5328 10.1785 27.6503C9.93169 27.8258 9.70526 28.0142 9.50109 28.2158C9.44355 28.2718 9.38973 28.3277 9.3359 28.3856C9.28208 28.4416 9.23197 28.4994 9.18185 28.5573C9.18 28.5573 9.17628 28.5629 9.17628 28.5666C9.12803 28.6207 9.08348 28.6767 9.04079 28.7327C9.03708 28.7364 9.03337 28.7402 9.03151 28.7458C8.98511 28.8055 8.94057 28.8652 8.89788 28.9268C8.85519 28.9921 8.8125 29.0555 8.77352 29.1208C8.73455 29.1806 8.69928 29.2421 8.66587 29.3056C8.65845 29.3131 8.65288 29.3243 8.64917 29.3336C8.62504 29.3765 8.60091 29.4213 8.5805 29.4661C8.49697 29.6303 8.42459 29.8001 8.36334 29.9737C8.34663 30.0222 8.32993 30.0707 8.31508 30.1211C8.30766 30.1398 8.30023 30.1603 8.29467 30.1827C8.27982 30.2331 8.26497 30.2853 8.25198 30.3357C8.24826 30.3506 8.2427 30.3674 8.23898 30.3861C8.22228 30.4551 8.20558 30.5242 8.19258 30.5951C8.17773 30.6716 8.16474 30.7481 8.15361 30.8265C8.14433 30.8825 8.1369 30.9385 8.13133 30.9982C8.12577 31.0392 8.12205 31.0803 8.1202 31.1232C8.05895 31.8379 8.15546 32.6086 8.41716 33.4204C9.167 35.7381 10.0189 38.082 11.2272 40.1776C11.3144 40.3288 11.4017 40.4762 11.4908 40.6236C11.6708 40.9129 11.8546 41.1965 12.0439 41.4708C12.1385 41.6071 12.2332 41.7433 12.3316 41.8758C12.5264 42.1427 12.7269 42.4002 12.9329 42.6484C12.9329 42.6484 12.9329 42.649 12.9329 42.6502C13.2429 43.0235 13.564 43.3762 13.8981 43.7083C14.0057 43.8166 14.1152 43.9211 14.2247 44.0237C14.2321 44.0312 14.2396 44.0386 14.2451 44.0424C14.4716 44.2551 14.7017 44.4566 14.9393 44.6489C15.0507 44.7422 15.1639 44.8317 15.2789 44.9194C15.2864 44.925 15.2938 44.9306 15.3012 44.9362C15.6687 45.2162 16.0492 45.4755 16.4427 45.7144C16.5114 45.7555 16.5819 45.7984 16.6506 45.8394C16.7137 45.8749 16.7768 45.9104 16.8399 45.9458C16.9067 45.9831 16.9735 46.0205 17.0422 46.0559C17.0793 46.0764 17.1164 46.097 17.1535 46.1156C17.2519 46.1679 17.3521 46.2183 17.4505 46.2668C17.521 46.3004 17.5897 46.334 17.6602 46.3676C17.7995 46.4329 17.9405 46.4963 18.0816 46.556C18.1521 46.5878 18.2245 46.6176 18.2969 46.6456C18.4398 46.7053 18.5846 46.7613 18.7312 46.8136C18.8054 46.8416 18.8778 46.8677 18.9521 46.8919C19.1748 46.9684 19.3994 47.0394 19.6277 47.1065C19.7037 47.1289 19.7798 47.1495 19.8559 47.17C19.9339 47.1905 20.01 47.211 20.0879 47.2316C20.2439 47.2708 20.3998 47.3062 20.5575 47.3417C20.8062 47.3939 21.0587 47.4424 21.3148 47.4835C21.3835 47.4947 21.4521 47.5059 21.5208 47.5152C21.6062 47.5283 21.6916 47.5395 21.7788 47.5525C21.8568 47.5619 21.9366 47.5731 22.0164 47.5805C22.2651 47.6104 22.5175 47.6328 22.7736 47.6514C23.1152 47.6738 23.4622 47.6869 23.8149 47.6906C27.3562 47.7336 30.5208 46.7035 33.2176 44.3652C33.3178 44.2775 33.4162 44.1898 33.5145 44.1021C33.5275 44.089 33.5424 44.0778 33.5554 44.0648C33.65 43.9789 33.7428 43.8912 33.8338 43.8035C33.934 43.7083 34.0324 43.6132 34.1308 43.5161C34.4184 43.2269 34.6931 42.932 34.9585 42.6297C34.966 42.6185 34.9753 42.6092 34.9827 42.5999C35.0662 42.5047 35.1479 42.4076 35.2277 42.3106C35.2908 42.2341 35.3539 42.1576 35.4151 42.0811C35.4578 42.0288 35.4987 41.9766 35.5395 41.9243C35.6026 41.8441 35.6657 41.762 35.7269 41.6799C35.7863 41.6033 35.8457 41.5231 35.9014 41.4447C35.9441 41.3887 35.9849 41.3328 36.0239 41.2768C36.1743 41.0678 36.319 40.8569 36.4564 40.6423C36.5176 40.5508 36.577 40.4575 36.6346 40.3661C36.8257 40.0638 37.0058 39.7559 37.1784 39.4442C37.2378 39.3397 37.2953 39.2334 37.351 39.127C37.4085 39.0225 37.4642 38.9143 37.518 38.8079C37.5663 38.7127 37.6145 38.6175 37.6609 38.5224C37.7018 38.4384 37.7426 38.3544 37.7816 38.2704C37.8224 38.1883 37.8614 38.1044 37.8985 38.0185C37.9282 37.9551 37.9579 37.8916 37.9858 37.8282C38.0359 37.7181 38.0841 37.608 38.1305 37.496C38.3217 37.0519 38.498 36.5984 38.6632 36.1393C38.6948 36.0516 38.7263 35.9621 38.7579 35.8725C38.834 35.6504 38.9082 35.4283 38.9787 35.2025C39.0121 35.098 39.0455 34.9935 39.0771 34.889C39.1959 34.499 39.3073 34.1053 39.4093 33.7078C39.4446 33.5753 39.478 33.4428 39.5114 33.3084C39.5504 33.1498 39.5857 32.9931 39.6154 32.8382C39.6451 32.6851 39.6692 32.534 39.6877 32.3847C39.6989 32.3101 39.7063 32.2354 39.7137 32.1626C39.7527 31.7689 39.7564 31.3919 39.7249 31.0336ZM31.9555 34.0567C31.9536 34.081 31.9518 34.1053 31.9518 34.1295C31.9499 34.1556 31.948 34.178 31.9443 34.2004C31.9406 34.2452 31.9369 34.2863 31.9295 34.3273C31.9239 34.3609 31.9184 34.3945 31.9109 34.4244C31.9054 34.4486 31.8998 34.4748 31.8924 34.4971C31.872 34.5662 31.846 34.6259 31.8107 34.6763C31.7996 34.6931 31.7866 34.7099 31.7736 34.7248C31.7476 34.7547 31.7179 34.7808 31.6845 34.8032C31.6511 34.8237 31.6158 34.8424 31.575 34.8592C31.5249 34.8797 31.4692 34.8946 31.4061 34.9058C31.369 34.9133 31.33 34.9208 31.2892 34.9245C30.9606 34.9674 30.4725 34.9506 29.7468 34.9525C29.4294 34.9543 29.112 34.9599 28.7928 34.9637C28.6369 34.9655 28.481 34.9693 28.3251 34.9711C28.0893 34.9749 27.8536 34.9749 27.6198 34.9711C27.5437 34.9711 27.4676 34.9711 27.3915 34.9693H27.3859C27.23 34.9655 27.0741 34.9618 26.92 34.9543C26.8124 34.9506 26.7029 34.945 26.5952 34.9376C26.4634 34.9282 26.3447 34.9282 26.2407 34.9376C26.2147 34.9376 26.1888 34.9432 26.1646 34.9469C26.1256 34.9525 26.0904 34.9581 26.057 34.9655C26.0217 34.9749 25.9902 34.9823 25.9605 34.9935C25.9289 35.0047 25.9011 35.0159 25.8732 35.029C25.8194 35.0551 25.7711 35.0868 25.7285 35.1242C25.7062 35.1428 25.6876 35.1615 25.6691 35.1839C25.6505 35.2044 25.6357 35.2249 25.6189 35.2492C25.6189 35.2492 25.6115 35.2604 25.6097 35.266C25.5967 35.2847 25.5874 35.3052 25.5763 35.3257C25.4816 35.5179 25.4556 35.7829 25.4705 36.1244C25.5336 37.5501 25.4593 38.9833 25.4983 40.4109C25.5187 41.1853 25.2143 41.4559 24.4589 41.4391C23.8279 41.4261 23.3731 41.4373 23.0446 41.4261C22.9871 41.4242 22.9314 41.4223 22.8813 41.4186C22.833 41.4149 22.7885 41.4111 22.7477 41.4037C22.7013 41.3999 22.6586 41.3925 22.6196 41.3813C22.5825 41.3719 22.5491 41.3626 22.5194 41.3496C22.5027 41.344 22.4878 41.3384 22.4748 41.329C22.46 41.3234 22.447 41.3141 22.434 41.3066C22.4024 41.2861 22.3746 41.2618 22.3505 41.2357C22.3263 41.2077 22.3078 41.1741 22.2892 41.1387C22.2632 41.0808 22.2428 41.0118 22.228 40.9297C22.2261 40.9278 22.2261 40.9259 22.2261 40.9241C22.215 40.8606 22.2094 40.7878 22.2038 40.7076C22.2038 40.6591 22.1983 40.6087 22.1964 40.5546C22.1983 40.5471 22.1983 40.5397 22.1964 40.5322C22.1927 40.368 22.1927 40.1739 22.1946 39.9425C22.1964 39.7391 22.1964 39.5058 22.1946 39.2427C22.1871 38.3638 22.1741 37.4848 22.1853 36.6077C22.189 36.367 22.1946 36.1263 22.2001 35.8855C22.2205 35.2063 21.9625 34.9357 21.2832 34.9469C19.8003 34.973 18.3154 34.9245 16.8325 34.9637C16.4056 34.9767 16.1197 34.8965 15.9434 34.7062C15.923 34.6838 15.9044 34.6614 15.8859 34.6352C15.7541 34.4468 15.704 34.1762 15.7095 33.8085C15.7207 33.2356 15.7151 32.8102 15.73 32.4967C15.7374 32.3586 15.7485 32.2429 15.7652 32.144C15.7708 32.1085 15.7782 32.0768 15.7856 32.0469C15.7894 32.0339 15.7931 32.0208 15.7968 32.0096C15.8395 31.8659 15.9063 31.7726 16.0158 31.7129C16.0455 31.698 16.077 31.683 16.1142 31.6718C16.1197 31.67 16.1253 31.6681 16.129 31.6681C16.1457 31.6625 16.1624 31.6588 16.1791 31.655C16.2014 31.6494 16.2237 31.6457 16.2459 31.642C16.2682 31.6364 16.2923 31.6345 16.3183 31.6308C16.6079 31.5972 17.0385 31.6196 17.6844 31.6196C17.7549 31.6196 17.8273 31.6177 17.9034 31.6177C18.2133 31.6159 18.5215 31.6103 18.8296 31.6047C19.572 31.5935 20.3162 31.5841 21.0549 31.6326C21.9774 31.6942 22.2372 31.3135 22.2075 30.4439C22.1611 29.1694 22.2038 27.8929 22.1927 26.6184C22.1927 26.4635 22.189 26.3086 22.1871 26.1556C22.1853 26.0436 22.189 25.9428 22.2001 25.8514C22.2057 25.8141 22.2113 25.7768 22.2187 25.7432C22.2261 25.7077 22.2335 25.676 22.2428 25.6443C22.2614 25.5808 22.2855 25.5248 22.3171 25.4726C22.3467 25.4222 22.3802 25.3755 22.421 25.3364C22.5862 25.1721 22.846 25.0994 23.2209 25.1012C23.7443 25.1031 24.1471 25.1012 24.4589 25.1143C24.5759 25.1199 24.6798 25.1273 24.7707 25.1385C24.8635 25.1479 24.9434 25.1628 25.0139 25.1833C25.1327 25.2151 25.2218 25.2617 25.2886 25.3252C25.5614 25.5827 25.4835 26.1388 25.4872 27.3499V28.4696L25.4927 29.175C25.4983 29.7161 25.5039 30.2592 25.4816 30.8004C25.4779 30.8974 25.4797 30.9851 25.4909 31.0635C25.4927 31.0821 25.4965 31.0989 25.4983 31.1157C25.5002 31.1307 25.5039 31.1456 25.5076 31.1605C25.5243 31.2314 25.5503 31.293 25.5818 31.3471C25.606 31.3863 25.6319 31.4199 25.6635 31.4498C25.695 31.4796 25.7303 31.5058 25.7711 31.5263C25.812 31.5487 25.8565 31.5655 25.9048 31.5804C25.9549 31.5953 26.0087 31.6065 26.0681 31.6121C26.1368 31.6196 26.211 31.6233 26.2927 31.6215C27.5789 31.6028 28.8652 31.627 30.1514 31.6177C30.4112 31.6177 30.6692 31.614 30.9291 31.6084C31.6919 31.5935 31.9796 31.9107 31.9703 32.6627C31.9629 33.2767 31.974 33.7264 31.9555 34.0567Z" fill="white"/>
<path d="M87.6144 35.5496C87.1764 38.304 86.7087 41.0528 86.3226 43.8147C86.228 44.4884 86.0182 44.7702 85.3519 44.6881C85.1385 44.6619 84.9158 44.6582 84.7042 44.6881C83.9618 44.7926 83.6833 44.4641 83.5794 43.7289C83.1711 40.8121 82.7034 37.9047 82.1929 34.9973C82.1929 37.873 82.1577 40.7505 82.2134 43.6244C82.2301 44.5108 81.9368 44.7776 81.1072 44.6937C80.5262 44.6358 79.9304 44.6433 79.3476 44.6937C78.6739 44.7496 78.5161 44.4492 78.5198 43.8259C78.5384 38.8844 78.5384 33.9411 78.5198 28.9996C78.518 28.38 78.6739 28.0945 79.3476 28.1169C80.5838 28.1579 81.8199 28.1449 83.0579 28.1206C83.6017 28.1094 83.8077 28.3278 83.8819 28.8671C84.2105 31.2594 84.5798 33.6443 85.0215 36.0274C85.3352 33.6742 85.6656 31.3247 85.9533 28.9697C86.0275 28.3632 86.2391 28.0964 86.8794 28.1169C88.1453 28.1561 89.4148 28.1449 90.6825 28.1225C91.2449 28.1113 91.4527 28.3464 91.4509 28.8932C91.4435 33.8981 91.4397 38.9012 91.4509 43.9061C91.4509 44.5257 91.1985 44.6843 90.6157 44.6974C87.6683 44.7646 87.6683 44.7776 87.6701 41.8348C87.6701 39.7522 87.6701 37.6714 87.6701 35.5888C87.6516 35.5758 87.633 35.5627 87.6144 35.5496Z" fill="white"/>
<path d="M73.5567 44.6843V36.8858C73.5066 36.8727 73.4565 36.8597 73.4064 36.8447C73.0742 37.8394 72.7345 38.8322 72.4097 39.8287C71.9587 41.2152 71.4947 42.5961 71.0845 43.9957C70.936 44.5014 70.6947 44.7105 70.1713 44.6918C69.3379 44.6619 68.5009 44.6638 67.6675 44.6918C67.1274 44.7105 66.8861 44.535 66.8861 43.9547C66.8991 38.9199 66.8972 33.8851 66.8898 28.8503C66.8898 28.3464 67.0736 28.1094 67.5988 28.1244C68.3709 28.1467 69.1449 28.1579 69.917 28.1206C70.5444 28.0908 70.7077 28.3763 70.7021 28.9548C70.6817 31.2445 70.6947 33.5361 70.8321 35.8557C71.4334 33.9802 72.0756 32.116 72.625 30.2256C73.2319 28.1374 73.1948 28.1094 75.3125 28.1318C77.5342 28.1561 77.3208 27.7381 77.3245 30.164C77.3338 34.6091 77.3041 39.0524 77.3449 43.4975C77.3542 44.4231 77.111 44.7982 76.1496 44.7011C75.3311 44.619 74.4959 44.6843 73.5586 44.6843H73.5567Z" fill="white"/>
<path d="M54.5231 34.5009C54.5231 36.3353 54.5899 38.1715 54.5082 40.0022C54.3579 43.4135 52.6448 44.9698 49.289 44.8635C46.44 44.7739 45.0907 43.3482 44.8104 40.131C44.5636 37.2945 44.5636 37.2833 47.3643 37.3001C49.2148 37.3113 49.0942 36.9735 49.1071 39.0374C49.1109 39.6588 49.0793 40.2877 49.1628 40.898C49.1944 41.1238 49.5155 41.3085 49.7029 41.5119C49.8626 41.2917 50.1521 41.0771 50.1595 40.8513C50.2078 39.392 50.1836 37.929 50.2059 36.4678C50.2133 35.9527 50.0166 35.7157 49.4969 35.7493C49.2501 35.7661 48.9995 35.7269 48.7564 35.7531C48.0975 35.824 47.8488 35.5235 47.923 34.8872C47.9416 34.7341 47.9248 34.5774 47.9248 34.4206C47.923 32.7654 47.9248 32.7859 49.5693 32.5974C49.7957 32.5713 50.1577 32.2354 50.1669 32.0301C50.2208 30.8209 50.2115 29.606 50.1669 28.3949C50.1577 28.1635 49.8848 27.9433 49.7326 27.7194C49.5322 27.9527 49.1981 28.1654 49.161 28.4229C49.07 29.063 49.096 29.7236 49.109 30.3768C49.1183 30.9422 48.9327 31.2501 48.309 31.2314C47.3829 31.2034 46.453 31.2146 45.5268 31.2258C45.0443 31.2314 44.7529 31.0784 44.79 30.5335C44.8605 29.4512 44.8457 28.3557 45.0053 27.2883C45.2262 25.8215 46.1022 24.8344 47.5908 24.6216C48.6506 24.4686 49.7568 24.379 50.8128 24.5078C53.1199 24.7877 54.434 26.4448 54.5286 28.9958C54.5639 29.927 54.5416 30.8601 54.5416 31.7931C54.5416 32.6945 54.5416 33.5958 54.5416 34.4972C54.5361 34.4972 54.5305 34.4972 54.5249 34.4972L54.5231 34.5009Z" fill="white"/>
<path d="M60.1878 33.8533C61.023 34.1277 61.4239 33.9672 61.3942 33.0509C61.3496 31.7166 61.4016 30.3786 61.3812 29.0406C61.3719 28.3875 61.5779 28.0721 62.2906 28.115C63.1537 28.1673 64.0223 28.1505 64.8872 28.1206C65.4645 28.1001 65.7243 28.283 65.7225 28.91C65.7058 33.9149 65.7225 38.9199 65.6909 43.9229C65.6909 44.1767 65.355 44.6339 65.1545 44.6451C63.9574 44.7142 62.7547 44.6787 61.4833 44.6787C61.4461 44.2252 61.3942 43.8614 61.3905 43.4975C61.3793 42.1613 61.3849 40.8233 61.3849 39.4872C61.3849 39.0598 61.37 38.6866 60.7668 38.681C60.1673 38.6735 60.1395 39.0225 60.1414 39.4666C60.1488 40.9278 60.1172 42.389 60.1543 43.8502C60.171 44.5089 59.9335 44.7272 59.2931 44.6955C58.3985 44.6526 57.5002 44.6656 56.6037 44.6899C56.0878 44.703 55.8892 44.4958 55.8892 43.9808C55.8984 38.946 55.9003 33.9093 55.8892 28.8745C55.8892 28.3016 56.1286 28.1094 56.6706 28.1243C57.567 28.1486 58.4653 28.1579 59.36 28.1225C59.978 28.0982 60.1636 28.3613 60.1525 28.9492C60.1246 30.2536 60.1414 31.5599 60.1469 32.8662C60.1469 33.2002 60.1766 33.5361 60.1933 33.8552L60.1878 33.8533Z" fill="white"/>
<path d="M112.736 28.1318C112.675 29.4717 112.506 30.6511 112.589 31.8137C112.749 34.0381 111.825 35.447 109.694 36.1244C112.146 37.0631 112.552 37.6808 112.584 40.2933C112.6 41.7135 112.68 43.1317 112.736 44.6638C111.624 44.6638 110.386 44.7608 109.183 44.5966C108.879 44.5556 108.525 43.6934 108.478 43.1821C108.37 41.9785 108.447 40.7599 108.424 39.5488C108.417 39.1811 108.396 38.7911 108.268 38.4552C108.164 38.1828 107.892 37.9738 107.693 37.7386C107.615 37.7666 107.539 37.7946 107.461 37.8226C107.428 38.1417 107.366 38.4608 107.365 38.7799C107.353 40.4277 107.342 42.0755 107.366 43.7214C107.377 44.4063 107.197 44.7608 106.424 44.6974C105.625 44.6321 104.814 44.6377 104.014 44.6955C103.276 44.7478 103.058 44.4753 103.064 43.7438C103.094 39.7037 103.077 35.6635 103.077 31.6215C103.077 30.7519 103.112 29.8785 103.066 29.0108C103.027 28.2979 103.32 28.0833 103.992 28.1188C104.824 28.1635 105.663 28.1654 106.494 28.1188C107.157 28.0814 107.366 28.3707 107.361 28.9884C107.346 30.5727 107.357 32.1589 107.361 33.7433C107.361 33.9243 107.398 34.1071 107.416 34.2882C107.498 34.3385 107.58 34.3889 107.66 34.4393C107.88 34.1183 108.244 33.8198 108.296 33.4727C108.415 32.6814 108.387 31.8659 108.411 31.0598C108.43 30.4384 108.417 29.8151 108.454 29.1955C108.497 28.4696 108.818 28.0721 109.631 28.115C110.672 28.1691 111.717 28.1281 112.732 28.1281L112.736 28.1318Z" fill="white"/>
<path d="M101.808 32.4556C101.793 31.6383 101.661 30.75 101.312 30.0259C101.163 29.7162 100.965 29.4344 100.725 29.1843C100.692 29.147 100.657 29.1115 100.62 29.0779C100.566 29.0257 100.51 28.9753 100.454 28.9268C100.284 28.7794 100.098 28.645 99.9014 28.5256C99.7715 28.4453 99.6341 28.3707 99.493 28.3035C98.0565 27.613 96.167 27.5813 94.736 28.3987C94.6655 28.4379 94.5968 28.4808 94.5281 28.5237C94.4595 28.5648 94.3926 28.6095 94.3277 28.6543C94.1959 28.7439 94.0716 28.8372 93.9528 28.9361C93.834 29.035 93.7208 29.1377 93.6168 29.2459C93.0879 29.7871 92.7371 30.457 92.6443 31.2986C92.5459 32.1906 92.5403 33.0938 92.4698 33.9896C92.4494 34.2602 92.4995 34.4468 92.6127 34.5681C92.6424 34.6017 92.6777 34.6297 92.7185 34.6539C92.7575 34.6763 92.802 34.695 92.8503 34.7118H92.8521C92.9598 34.7435 93.0878 34.7584 93.2363 34.7547C94.04 34.7416 94.8455 34.7342 95.6492 34.7566C95.7791 34.7603 95.896 34.7528 95.9963 34.7342C96.052 34.7211 96.1021 34.7062 96.1485 34.6875H96.1503C96.219 34.6576 96.2784 34.6185 96.3285 34.5699C96.4714 34.43 96.5345 34.2079 96.5252 33.8813C96.503 33.1069 96.5457 32.3287 96.6069 31.5562C96.6106 31.5132 96.6236 31.4666 96.644 31.4218C96.6533 31.3994 96.6663 31.377 96.6811 31.3546C96.6941 31.3322 96.709 31.3098 96.7257 31.2893C96.7405 31.2688 96.7572 31.2464 96.7777 31.2277C96.7925 31.2128 96.8055 31.1979 96.8204 31.1848C96.8482 31.1568 96.8779 31.1325 96.9076 31.1139C96.9224 31.1027 96.9373 31.0934 96.9521 31.0859C96.9874 31.0672 97.0523 31.0803 97.1247 31.1139C97.1247 31.1139 97.1247 31.1139 97.1266 31.1139C97.1581 31.1288 97.1934 31.1475 97.225 31.168C97.2751 31.1997 97.3215 31.237 97.3549 31.2744C97.3679 31.2874 97.379 31.3005 97.3883 31.3136C97.7781 31.9033 97.6945 32.9445 97.3345 33.7806C97.3066 33.8403 97.2806 33.9 97.2509 33.9579C97.121 34.221 96.9614 34.4561 96.7795 34.6409C96.7201 34.7024 96.657 34.7566 96.5939 34.8088C96.5939 34.8088 96.5921 34.8069 96.5921 34.8088C96.5271 34.8573 96.4603 34.9021 96.3916 34.9376C95.5415 35.3836 94.6933 35.8296 93.8507 36.2868C93.6818 36.3801 93.5277 36.4827 93.3922 36.5947C93.3477 36.6339 93.3032 36.6712 93.2623 36.7122C92.7612 37.19 92.5199 37.8282 92.5013 38.5765C92.4698 39.7559 92.4419 40.9427 92.5106 42.1184C92.5644 43.0347 92.8596 43.7419 93.3681 44.2327C93.4182 44.2812 93.4702 44.326 93.5222 44.3708C93.8989 44.675 94.3704 44.8803 94.9346 44.9848C95.2427 45.0408 95.5323 45.0464 95.8051 45.0016C95.8181 44.9997 95.8311 44.9978 95.8459 44.9941C96.0482 44.9586 96.2431 44.8933 96.4306 44.8056C96.7424 44.6563 97.0375 44.438 97.3233 44.1562C97.4551 44.0275 97.5832 43.8856 97.7131 43.7307C97.6352 44.1543 97.689 44.4007 97.8337 44.5369C97.8653 44.5668 97.9006 44.5929 97.9414 44.6134C98.0899 44.6881 98.2903 44.703 98.5261 44.6918C99.3613 44.6582 100.198 44.6489 101.032 44.6937C101.338 44.7105 101.544 44.6657 101.678 44.5481C101.694 44.5332 101.709 44.5182 101.724 44.5014C101.841 44.3596 101.885 44.1432 101.884 43.8352C101.847 40.0433 101.871 36.2476 101.806 32.4556H101.808ZM97.4885 41.3477C97.4885 41.385 97.4774 41.4261 97.4588 41.469C97.4496 41.4877 97.4403 41.5082 97.431 41.5268C97.418 41.5511 97.4031 41.5735 97.3864 41.594C97.3753 41.6108 97.3623 41.6258 97.3493 41.6407C97.34 41.65 97.3326 41.6593 97.3233 41.6668C97.3085 41.6836 97.2918 41.6985 97.2751 41.7097C97.2491 41.7284 97.225 41.7415 97.2008 41.7489C97.1396 41.7676 97.0524 41.7564 96.9688 41.7265C96.9317 41.7135 96.8946 41.6985 96.8612 41.678C96.8445 41.6705 96.8259 41.6593 96.8111 41.6481C96.8036 41.6425 96.7962 41.6388 96.7906 41.6313C96.7795 41.6239 96.7721 41.6146 96.7628 41.6052C96.7535 41.5959 96.7443 41.5884 96.7368 41.5791C96.7313 41.5716 96.7257 41.5642 96.7183 41.5567C96.7145 41.5492 96.7071 41.5418 96.7016 41.5324C96.6682 41.4821 96.6385 41.4279 96.6125 41.3664C96.5791 41.2843 96.5512 41.1928 96.5271 41.092C96.477 40.8588 96.4566 40.5845 96.464 40.2896C96.4658 40.228 96.4677 40.1646 96.4714 40.1011C96.4751 40.0246 96.4825 39.9462 96.49 39.8679C96.4955 39.8156 96.503 39.7615 96.5104 39.7092C96.5178 39.6514 96.5252 39.5954 96.5345 39.5376C96.5438 39.4778 96.5531 39.4181 96.5642 39.3584C96.5809 39.2688 96.5995 39.1793 96.6218 39.0897C96.631 39.0449 96.6422 39.002 96.6533 38.9591C96.6719 38.8844 96.6941 38.8135 96.7146 38.7407C96.7424 38.6493 96.7721 38.5597 96.8036 38.4739C96.8074 38.4627 96.8129 38.4496 96.8166 38.4384C96.8185 38.4347 96.8185 38.4309 96.8204 38.4272C96.8315 38.3992 96.8426 38.3712 96.8519 38.3432C96.8556 38.3376 96.8575 38.332 96.8593 38.3264C96.876 38.2835 96.8927 38.2425 96.9113 38.2033C96.9169 38.1921 96.9224 38.1809 96.9261 38.1697C96.9336 38.1529 96.941 38.138 96.9484 38.123C96.967 38.0801 96.9874 38.0409 97.0078 37.9999C97.0115 37.9924 97.0152 37.9849 97.0189 37.9775C97.0245 37.97 97.0264 37.9644 97.0301 37.957C97.0431 37.9308 97.0561 37.9066 97.0709 37.8823C97.0839 37.858 97.0969 37.8357 97.1136 37.8114C97.1266 37.789 97.1414 37.7666 97.1563 37.7442C97.1711 37.7218 97.186 37.6994 97.2008 37.6789C97.2454 37.6155 97.2918 37.5576 97.34 37.5072C97.3549 37.4886 97.3716 37.4736 97.3883 37.4568C97.3976 37.4475 97.405 37.44 97.4143 37.4326C97.4421 37.4064 97.4718 37.3803 97.5015 37.3579C97.5015 38.7295 97.5108 40.0395 97.4885 41.3477Z" fill="white"/>
<path d="M117.846 36.2924C117.846 37.6285 117.84 38.9665 117.849 40.3027C117.851 40.6106 117.849 40.9409 117.957 41.2189C118.042 41.4429 118.289 41.6033 118.466 41.7937C118.646 41.5754 118.954 41.3719 118.98 41.1349C119.061 40.4277 119.039 39.7092 119.045 38.9945C119.054 37.7293 119.05 37.7274 120.348 37.7237C120.997 37.7237 121.65 37.6845 122.293 37.7554C122.525 37.7815 122.911 38.0652 122.918 38.2443C122.991 40.0918 122.933 41.9318 121.706 43.4732C120.565 44.9082 118.556 45.4084 116.552 44.7944C114.824 44.2663 113.755 42.8947 113.675 40.6684C113.571 37.7237 113.569 34.7696 113.671 31.8249C113.747 29.6228 115.451 28.0684 117.732 27.8426C119.958 27.6224 121.986 28.8801 122.547 30.9329C122.79 31.823 122.848 32.7673 122.963 33.6891C123.039 34.2993 122.788 34.6203 122.126 34.5923C121.354 34.5606 120.578 34.5531 119.807 34.5961C119.097 34.6352 118.779 34.4001 118.833 33.6425C118.879 32.9949 118.857 32.3343 118.787 31.6886C118.762 31.4666 118.506 31.2688 118.356 31.0616C118.191 31.2818 117.888 31.4983 117.883 31.7241C117.84 33.2468 117.86 34.7696 117.86 36.2924C117.855 36.2924 117.851 36.2924 117.846 36.2924Z" fill="white"/>
<path d="M32.8723 9.44071C32.7739 11.7323 32.0334 13.7272 30.4409 15.3545C29.3792 16.4387 28.106 17.0713 26.5896 16.5842C25.0918 16.1046 24.457 14.8021 24.2361 13.3764C23.8148 10.6369 24.5795 8.20907 26.4912 6.18806C27.5343 5.08518 28.8057 4.46376 30.3295 4.91909C31.8886 5.38562 32.438 6.72737 32.7591 8.17175C32.8519 8.59162 32.8389 9.03576 32.8723 9.44071Z" fill="white"/>
<path d="M21.6006 15.3097C21.3333 15.6922 20.9677 16.2091 20.3106 16.5133C19.4568 16.9071 18.4305 16.8418 17.4709 16.3155C14.4697 14.6715 12.8995 9.90165 14.3305 6.77589C15.2733 4.71756 17.4783 4.14092 19.3622 5.51253C21.1922 6.84494 22.1147 8.73159 22.4284 10.9448C22.4859 11.3442 22.4989 11.7491 22.5323 12.1522C22.5323 12.8632 22.4209 14.134 21.6006 15.3097Z" fill="white"/>
<path d="M37.9505 23.4646C37.5663 23.739 36.5937 24.4332 35.4337 24.2279C34.5706 24.0749 33.7874 23.4964 33.2695 22.5372C31.8014 19.8164 32.8018 15.4347 35.2833 13.716C36.1965 13.0834 37.1412 12.8987 37.9672 13.1506C38.9509 13.451 39.4724 14.3188 39.7285 14.7592C41.2394 17.3661 40.4654 21.6694 37.9505 23.4665V23.4646Z" fill="white"/>
<path d="M7.99584 14.483C8.27611 14.0668 8.63247 13.5443 9.28579 13.2551C10.1062 12.8912 11.0917 12.9826 11.9956 13.5331C14.6015 15.1212 15.8191 19.7081 14.3528 22.414C13.1167 24.7 10.6036 24.8792 8.88303 22.804C7.73785 21.4231 7.09381 19.6018 7.0901 17.7375C7.07896 16.9836 7.18475 15.6885 7.99399 14.483H7.99584Z" fill="white"/>
<path d="M22.1872 26.1556C22.189 26.3086 22.1927 26.4635 22.1927 26.6184C22.1909 26.4654 22.189 26.3105 22.1853 26.1575C22.1853 26.0455 22.1872 25.9447 22.2002 25.8514C22.189 25.9428 22.1853 26.0436 22.1872 26.1556Z" fill="#005ED2"/>
<path d="M22.2892 41.1387C22.2595 41.0808 22.2409 41.0118 22.2279 40.9297C22.2428 41.0118 22.2632 41.0808 22.2892 41.1387Z" fill="#005ED2"/>
<path d="M22.421 25.3364C22.3801 25.3756 22.3467 25.4222 22.317 25.4726C22.3449 25.4203 22.3801 25.3756 22.421 25.3364Z" fill="#005ED2"/>
<path d="M25.4928 29.175C25.4909 28.9399 25.489 28.7047 25.4872 28.4696V27.3499C25.489 27.7231 25.4872 28.0964 25.489 28.4696C25.489 28.7047 25.489 28.9399 25.4928 29.175Z" fill="#005ED2"/>
<path d="M25.5763 35.3257C25.6023 35.2716 25.632 35.2231 25.6691 35.1839C25.632 35.2249 25.6023 35.2735 25.5763 35.3257Z" fill="#005ED2"/>
<path d="M26.5952 34.9376C26.43 34.9264 26.287 34.9301 26.1646 34.9469C26.287 34.9282 26.43 34.9264 26.5952 34.9376Z" fill="#005ED2"/>
<path d="M28.7928 34.9637C28.1673 34.9749 27.5437 34.9842 26.92 34.9543C27.5418 34.9823 28.1673 34.973 28.7928 34.9637Z" fill="#005ED2"/>
<path d="M31.9554 34.0567C31.9499 34.1594 31.9424 34.249 31.9294 34.3273C31.9424 34.2471 31.9499 34.1575 31.9554 34.0567Z" fill="#005ED2"/>
<path d="M96.9489 38.123C96.9413 38.1381 96.9337 38.1532 96.9261 38.1702C96.9299 38.157 96.9356 38.1457 96.9413 38.1362C96.9432 38.1325 96.9451 38.1268 96.9489 38.123Z" fill="#005ED2"/>
<path d="M96.6125 41.3663C96.5772 41.2842 96.5494 41.1928 96.5271 41.092C96.5512 41.1928 96.5791 41.2842 96.6125 41.3663Z" fill="#005ED2"/>
<path d="M96.5271 41.0902C96.4751 40.8588 96.4547 40.5844 96.464 40.2896C96.4565 40.5844 96.477 40.8588 96.5271 41.0902Z" fill="#005ED2"/>
<path d="M96.5345 39.5375C96.5252 39.5954 96.5178 39.6514 96.5104 39.7092C96.5141 39.685 96.516 39.6588 96.5197 39.6346C96.5234 39.6029 96.5289 39.5693 96.5345 39.5375Z" fill="#005ED2"/>
<path d="M96.49 39.8679C96.4956 39.8156 96.503 39.7615 96.5104 39.7092C96.503 39.7633 96.4956 39.8156 96.49 39.8679Z" fill="#005ED2"/>
<path d="M96.4714 40.1011C96.477 40.0246 96.4826 39.9462 96.49 39.8679C96.4826 39.9462 96.4751 40.0246 96.4714 40.1011Z" fill="#005ED2"/>
<path d="M96.6125 41.3663C96.6385 41.4279 96.6682 41.482 96.7016 41.5324C96.6682 41.4839 96.6385 41.4279 96.6125 41.3663Z" fill="#005ED2"/>
<path d="M96.6217 39.0897C96.5995 39.1792 96.5809 39.2688 96.5642 39.3584C96.5753 39.2987 96.5883 39.2408 96.6013 39.183C96.6069 39.1513 96.6143 39.1214 96.6217 39.0897Z" fill="#005ED2"/>
<path d="M96.7368 41.5791C96.7368 41.5791 96.7535 41.5959 96.7628 41.6052C96.7535 41.5959 96.7424 41.5884 96.735 41.5791C96.7294 41.5716 96.7238 41.5642 96.7183 41.5567C96.7257 41.5642 96.7313 41.5716 96.7368 41.5791Z" fill="#005ED2"/>
<path d="M96.7706 41.613C96.7706 41.613 96.7648 41.6072 96.7628 41.6052C96.7726 41.615 96.7804 41.6248 96.7921 41.6326C96.7843 41.6248 96.7765 41.6209 96.7706 41.613Z" fill="#005ED2"/>
<path d="M96.9689 41.7265C96.9503 41.7209 96.9317 41.7134 96.9132 41.7041C96.8946 41.6967 96.8779 41.6873 96.8612 41.678C96.8946 41.6985 96.9317 41.7135 96.9689 41.7265Z" fill="#005ED2"/>
<path d="M96.8519 38.3432C96.8705 38.2947 96.8909 38.2481 96.9113 38.2014C96.9076 38.2107 96.9039 38.2201 96.9002 38.2275C96.8853 38.2593 96.8723 38.2928 96.8593 38.3246C96.8575 38.3302 96.8556 38.3358 96.8519 38.3414V38.3432Z" fill="#005ED2"/>
<path d="M96.9489 38.123C96.9413 38.1381 96.9337 38.1532 96.9261 38.1702C96.9299 38.157 96.9356 38.1457 96.9413 38.1362C96.9432 38.1325 96.9451 38.1268 96.9489 38.123Z" fill="#005ED2"/>
</g>
<defs>
<clipPath id="clip0_15_2501">
<rect width="128" height="54" fill="white"/>
</clipPath>
</defs>
</svg>
