<svg width="402" height="377" viewBox="0 0 402 377" fill="none" xmlns="http://www.w3.org/2000/svg">
<path d="M153.077 108.008C184.391 107.152 234.416 131.743 260.764 164.587C301.149 214.924 339.975 190.251 377.546 224.342C405.963 250.134 414.875 305.828 372.609 334.714C330.344 363.6 257.324 332.604 214.166 350.106C171.007 367.608 132.358 381.971 88.4593 375.359C38.0558 367.785 -6.43152 322.261 1.78873 240.906C12.3006 136.828 86.2417 109.83 153.077 108.008Z" fill="#E1ECFF"/>
<path d="M32.7855 259.177C32.7855 259.177 6.49959 270.779 4.95675 293.325C3.58671 313.353 14.1274 333.912 32.7855 343.519C54.1013 354.471 63.3583 336.249 56.611 324.729C49.8636 313.209 12.3336 295.518 37.846 272.865C37.846 263.184 32.7855 259.177 32.7855 259.177Z" fill="#F79B74"/>
<path d="M209.146 244.501C209.146 244.501 209.944 261.946 211.384 264.024C212.824 266.101 225.784 269.705 226.5 273.787C227.216 277.868 227.138 284.99 220.58 286.269C214.022 287.549 200.009 287.232 196.417 287.092C192.825 286.952 185.378 276.848 182.099 253.804C201.621 244.888 209.146 244.501 209.146 244.501Z" fill="#F79B74"/>
<path d="M175.101 26.2042C175.101 26.2042 184.905 7.54198 191.755 3.22203C198.606 -1.09792 203.144 1.00857 204.826 5.54246C206.509 10.0763 206.937 28.3106 206.937 28.3106C206.937 28.3106 225.912 45.9155 233.079 65.417C240.246 84.9184 241.83 124.452 196.606 129.714C151.382 134.976 104.785 120.025 84.8552 106.531C91.3969 73.5343 100.674 30.5241 102.785 18.6298C104.896 6.73559 111.425 0.835767 118.596 0.87691C125.767 0.918052 134.638 17.5601 137.361 27.6812C156.229 25.4636 175.101 26.2042 175.101 26.2042Z" fill="#FFC397"/>
<path opacity="0.3" d="M132.321 28.6974C132.321 28.6974 126.08 8.5623 120.649 8.66927C115.786 8.7639 113.536 23.892 113.128 31.3428C113.114 31.6076 113.161 31.8721 113.266 32.1157C113.37 32.3593 113.53 32.5755 113.732 32.7474C113.933 32.9194 114.172 33.0425 114.429 33.1071C114.686 33.1718 114.955 33.1763 115.214 33.1202C121.846 31.7049 132.321 28.6974 132.321 28.6974Z" fill="white"/>
<path opacity="0.3" d="M207.048 28.3806C207.048 28.3806 207.558 7.14701 203.041 5.55892C198.453 3.94202 191.11 17.3709 188.139 24.2293C188.035 24.4732 187.988 24.7377 188.002 25.0026C188.017 25.2674 188.092 25.5254 188.222 25.7565C188.352 25.9876 188.534 26.1857 188.752 26.3354C188.971 26.4851 189.222 26.5823 189.484 26.6197C196.191 27.5824 207.048 28.3806 207.048 28.3806Z" fill="white"/>
<path d="M84.8553 106.531C81.6379 119.499 62.5067 153.968 50.8058 172.947C39.1049 191.926 28.77 215.735 29.4118 245.822C30.0536 275.91 41.4007 284.126 57.1253 288.693C72.8499 293.259 82.543 291.984 91.6849 293.193C100.827 294.403 110.376 298.324 116.564 293.193C122.752 288.063 125.981 285.039 132.868 288.623C139.756 292.206 157.253 291.223 161.82 290.03C166.387 288.837 168.638 279.699 160.997 274.988C173.509 278.995 205.431 275.325 213.075 244.419C219.189 219.643 200.733 168.421 196.619 156.712C192.41 144.698 190.505 138.05 192.825 127.192C177.524 122.872 84.8553 106.531 84.8553 106.531Z" fill="#FFC397"/>
<mask id="mask0_112_644" style="mask-type:luminance" maskUnits="userSpaceOnUse" x="29" y="106" width="186" height="190">
<path d="M84.8553 106.531C81.6379 119.499 62.5067 153.968 50.8058 172.947C39.1049 191.926 28.77 215.735 29.4118 245.822C30.0536 275.91 41.4007 284.126 57.1253 288.693C72.8499 293.259 82.543 291.984 91.6849 293.193C100.827 294.403 110.376 298.324 116.564 293.193C122.752 288.063 125.981 285.039 132.868 288.623C139.756 292.206 157.253 291.223 161.82 290.03C166.387 288.837 168.638 279.699 160.997 274.988C173.509 278.995 205.431 275.325 213.075 244.419C219.189 219.643 200.733 168.421 196.619 156.712C192.41 144.698 190.505 138.05 192.825 127.192C177.524 122.872 84.8553 106.531 84.8553 106.531Z" fill="white"/>
</mask>
<g mask="url(#mask0_112_644)">
<path d="M71.7926 136.017C71.7926 136.017 88.2907 153.988 84.8553 172.313C82.469 185.092 66.7238 192.131 65.037 203.096C63.3502 214.06 51.3284 232.307 31.0904 222.877C33.6289 191.498 71.7926 136.017 71.7926 136.017Z" fill="#F79B74"/>
<g style="mix-blend-mode:multiply" opacity="0.19">
<path d="M44.1696 183.092C44.1696 183.092 30.6584 265.484 81.6914 292.486C46.1691 314.024 -2.21436 248.875 -2.21436 248.875L44.1696 183.092Z" fill="#FFC397"/>
</g>
<path d="M119.086 254.61C119.086 254.61 118.263 272.248 102.925 275.132C104.892 279.135 118.876 276.465 119.509 290.449C122.11 288.861 125.343 285.039 132.864 288.623C122.673 271.474 119.086 254.61 119.086 254.61Z" fill="#F79B74"/>
<path opacity="0.3" d="M197.585 146.142C197.585 146.142 192.336 141.477 177.014 143.674C161.693 145.871 142.212 189.955 144.705 216.294C147.198 242.634 143.932 273.046 168.3 278.769C192.599 288.203 244.899 252.319 244.899 252.319L197.585 146.142Z" fill="white"/>
</g>
<path d="M145.252 187.688C145.228 202.956 146.614 218.166 148.099 233.356C148.836 240.91 149.506 248.488 150.856 255.984C151.852 261.489 153.057 271.359 160.15 272.273C162.479 272.573 162.512 276.28 160.15 275.975C153.041 275.058 149.864 268.656 148.383 262.337C146.528 254.421 145.672 246.291 144.87 238.207C143.224 221.425 141.525 204.606 141.549 187.717C141.549 185.335 145.252 185.331 145.252 187.717V187.688Z" fill="#F79B74"/>
<path d="M113.77 217.348C114.926 229.39 117.506 241.239 120.805 252.866C122.451 258.589 124.233 264.262 126.129 269.899C127.076 272.716 128.044 275.527 129.034 278.333C129.993 281.057 130.918 283.838 132.901 286.01C134.506 287.767 131.893 290.392 130.285 288.627C126.384 284.356 124.998 278.065 123.179 272.721C121.122 266.723 119.197 260.687 117.448 254.594C113.951 242.403 111.277 229.982 110.067 217.348C109.837 214.978 113.544 214.994 113.77 217.348Z" fill="#F79B74"/>
<path d="M94.9475 214.714C100.707 217.479 106.155 222.281 110.392 227.02C114.63 231.76 117.103 237.594 118.493 243.728C119.884 249.862 121.192 257.021 118.794 263.065C116.769 268.162 112.668 272.256 107.854 274.795C101.242 278.284 93.6103 278.934 86.2582 278.822C83.8802 278.79 83.8719 275.087 86.2582 275.12C93.6309 275.231 101.436 274.626 107.809 270.536C113.84 266.665 116.827 260.662 116.284 253.532C115.741 246.402 114.095 238.721 110.113 232.665C108.055 229.526 105.245 226.995 102.44 224.539C99.539 221.997 96.5808 219.602 93.0879 217.915C90.9402 216.883 92.8163 213.69 94.9557 214.719L94.9475 214.714Z" fill="#F79B74"/>
<path d="M101.065 274.363C105.842 276.214 110.816 277.827 115.465 279.983C117.216 280.772 118.678 282.086 119.648 283.743C120.619 285.401 121.051 287.318 120.884 289.231C120.674 291.585 116.971 291.605 117.181 289.231C117.551 285.084 114.679 283.591 111.314 282.287L100.078 277.934C97.8768 277.082 98.8437 273.499 101.061 274.363H101.065Z" fill="#F79B74"/>
<path d="M160.146 281.439C161.217 283.72 161.671 286.243 161.462 288.754C161.244 291.108 157.542 291.132 157.76 288.754C157.967 286.898 157.684 285.019 156.937 283.307C156.525 282.39 156.678 281.328 157.599 280.777C158.389 280.304 159.722 280.53 160.134 281.439H160.146Z" fill="#F79B74"/>
<path d="M147.861 281.661C149.132 284.101 149.231 286.738 149.149 289.433C149.079 291.811 145.376 291.819 145.446 289.433C145.507 287.442 145.61 285.352 144.664 283.533C143.565 281.419 146.758 279.547 147.861 281.661Z" fill="#F79B74"/>
<path d="M192.175 130.805C192.175 130.805 134.831 135.626 84.8635 106.531C82.1563 114.348 78.4659 122.658 78.4659 122.658C78.4659 122.658 128.174 152.828 192.903 144.776C195.228 140.942 192.175 130.805 192.175 130.805Z" fill="#C473E0"/>
<path d="M216.844 75.6567C215.388 76.9321 203.037 77.2366 201.737 76.4261C200.437 75.6156 201.877 66.8687 209.29 66.8687C216.704 66.8687 217.971 74.6693 216.844 75.6567Z" fill="#771C58"/>
<path d="M163.717 75.6567C162.256 76.9321 149.905 77.2366 148.605 76.4261C147.305 75.6156 148.745 66.8687 156.159 66.8687C163.573 66.8687 164.84 74.6693 163.717 75.6567Z" fill="#771C58"/>
<path d="M190.208 94.2339C190.208 94.2339 186.345 104.001 184.037 103.791C181.729 103.581 176.434 94.2339 176.434 94.2339" stroke="#771C58" stroke-width="9" stroke-miterlimit="10" stroke-linecap="round"/>
<path d="M243.2 87.3006C238.281 87.1113 233.356 87.1937 228.446 87.5475C226.068 87.7202 226.076 84.0174 228.446 83.8446C233.356 83.4909 238.281 83.4084 243.2 83.5978C245.574 83.6883 245.586 87.3911 243.2 87.3006Z" fill="#F79B74"/>
<path d="M241.55 105.58C237.456 103.745 233.267 102.129 229.002 100.738C226.747 100.001 227.71 96.426 229.985 97.1706C234.551 98.6695 239.035 100.408 243.418 102.379C245.586 103.354 243.706 106.547 241.55 105.58Z" fill="#F79B74"/>
<path d="M140.48 88.0247C136.414 85.5688 132.159 83.4419 127.754 81.6641C125.57 80.7877 126.52 77.2084 128.738 78.0929C133.447 79.9715 137.998 82.2237 142.348 84.8279C144.405 86.0622 142.529 89.2549 140.48 88.0247Z" fill="#F79B74"/>
<path d="M139.052 98.3761C134.839 98.6271 130.643 99.0509 126.467 99.6721C124.138 100.018 123.13 96.4506 125.483 96.1009C130.009 95.4303 134.51 94.9448 139.06 94.6733C141.442 94.5293 141.434 98.2321 139.06 98.3761H139.052Z" fill="#F79B74"/>
<path d="M186.329 27.0969C182.923 26.7269 179.495 26.6155 176.072 26.7637C173.69 26.8665 173.694 23.1637 176.072 23.0609C179.495 22.9127 182.923 23.0241 186.329 23.3941C188.67 23.6492 188.699 27.3561 186.329 27.0969Z" fill="#F79B74"/>
<path d="M135.781 28.5698C133.316 28.6125 130.881 29.1162 128.602 30.0551C126.393 30.9438 125.434 27.3644 127.619 26.4839C130.216 25.4431 132.984 24.8948 135.781 24.867C138.163 24.83 138.163 28.5328 135.781 28.5698Z" fill="#F79B74"/>
<path d="M190.209 164.932C183.883 164.932 178.755 160.132 178.755 154.21C178.755 148.289 183.883 143.489 190.209 143.489C196.534 143.489 201.663 148.289 201.663 154.21C201.663 160.132 196.534 164.932 190.209 164.932Z" fill="#FFD3B3"/>
<path d="M190.209 164.932C183.883 164.932 178.755 160.132 178.755 154.21C178.755 148.289 183.883 143.489 190.209 143.489C196.534 143.489 201.663 148.289 201.663 154.21C201.663 160.132 196.534 164.932 190.209 164.932Z" fill="#E0A173"/>
<mask id="mask1_112_644" style="mask-type:luminance" maskUnits="userSpaceOnUse" x="178" y="143" width="24" height="22">
<path d="M190.209 164.932C183.883 164.932 178.755 160.132 178.755 154.21C178.755 148.289 183.883 143.489 190.209 143.489C196.534 143.489 201.663 148.289 201.663 154.21C201.663 160.132 196.534 164.932 190.209 164.932Z" fill="white"/>
</mask>
<g mask="url(#mask1_112_644)">
<path d="M186.277 153.945C186.062 152.353 188.204 150.749 191.061 150.364C193.919 149.978 196.41 150.955 196.625 152.548C196.84 154.14 194.697 155.743 191.84 156.129C188.982 156.515 186.492 155.537 186.277 153.945Z" fill="#771C58"/>
<path d="M191.443 153.618C192.937 157.536 193.397 161.773 192.776 165.92L191.443 153.618Z" fill="#771C58"/>
<path d="M191.443 153.618C192.937 157.536 193.397 161.773 192.776 165.92" stroke="#771C58" stroke-width="7" stroke-miterlimit="10"/>
</g>
</svg>
