<svg width="404" height="574" viewBox="0 0 404 574" fill="none" xmlns="http://www.w3.org/2000/svg">
<path opacity="0.53" d="M366.935 274.38C361.713 269.936 343.557 270.372 332.934 270.372C322.311 270.372 301.357 270.842 295.591 278.153C289.825 285.464 305.835 293.249 330.619 293.249C355.403 293.249 382.441 287.583 366.935 274.38Z" fill="#99ADF9"/>
<path d="M74.1558 295.839C74.1558 295.839 35.9292 296.657 22.1425 298.985C8.35583 301.313 -9.19084 318.264 6.16249 336.111C21.5158 353.958 44.2499 351.873 108.692 351.873C97.6558 316.479 74.1558 295.839 74.1558 295.839Z" fill="#99ADF9"/>
<path d="M318.351 304.129C318.351 304.129 339.732 300.621 369.311 305.104C387.485 307.858 405.34 317.567 403.691 331.463C401.28 351.825 352.683 344.083 339.719 355.307C326.755 366.53 355.007 369.807 362.932 381.557C370.856 393.307 363.65 409.252 326.624 411.676C289.599 414.1 174.562 415.336 147.985 412.003C121.408 408.669 105.084 377.545 147.402 360.807C213.476 347.347 318.351 304.129 318.351 304.129Z" fill="#99ADF9"/>
<path d="M55.1599 312.101C55.1599 346.451 106.264 374.298 201.439 374.298C296.614 374.298 345.05 346.446 345.05 312.101C345.05 277.757 296.588 249.905 201.439 249.905C106.29 249.905 55.1599 277.752 55.1599 312.101Z" fill="#F0F6FF"/>
<mask id="mask0_9_68" style="mask-type:luminance" maskUnits="userSpaceOnUse" x="55" y="249" width="291" height="126">
<path d="M55.1599 312.101C55.1599 346.451 106.264 374.298 201.439 374.298C296.614 374.298 345.05 346.446 345.05 312.101C345.05 277.757 296.588 249.905 201.439 249.905C106.29 249.905 55.1599 277.752 55.1599 312.101Z" fill="white"/>
</mask>
<g mask="url(#mask0_9_68)">
<path opacity="0.36" d="M266.277 282.557C266.277 282.557 318.556 287.822 322.316 357.691C301.636 394.66 220.169 385.891 220.169 385.891C220.169 385.891 223.254 315.065 195.276 276.469C137.136 278.349 95.7757 277.774 80.109 356.107C48.149 339.814 45.6902 304.351 45.6902 304.351C45.6902 304.351 61.3569 254.217 84.2302 248.577C107.104 242.937 144.077 249.831 144.077 249.831L266.277 282.557Z" fill="#FF97C9"/>
<g style="mix-blend-mode:multiply" opacity="0.64">
<path d="M100.476 286.83C100.476 303.641 135.604 317.271 201.003 317.271C266.403 317.271 299.734 303.641 299.734 286.83C299.734 270.019 266.42 256.393 201.003 256.393C135.586 256.393 100.476 270.028 100.476 286.83Z" fill="#E1ECFF"/>
</g>
</g>
<path d="M155.84 291.352C155.84 291.352 149.434 298.593 148.599 304.442C147.763 310.291 148.459 317.533 141.636 319.9C134.812 322.267 116.83 323.66 111.277 316.558C105.724 309.456 109.467 298.036 119.493 289.402C132.984 277.426 148.32 276.451 148.32 276.451L155.84 291.352Z" fill="#FEC272"/>
<mask id="mask1_9_68" style="mask-type:luminance" maskUnits="userSpaceOnUse" x="108" y="276" width="48" height="46">
<path d="M155.84 291.352C155.84 291.352 149.434 298.593 148.599 304.442C147.763 310.291 148.459 317.533 141.636 319.9C134.812 322.267 116.83 323.66 111.277 316.558C105.724 309.456 109.467 298.036 119.493 289.402C132.984 277.426 148.32 276.451 148.32 276.451L155.84 291.352Z" fill="white"/>
</mask>
<g mask="url(#mask1_9_68)">
<g style="mix-blend-mode:multiply" opacity="0.45">
<path d="M157.842 305.339C157.842 305.339 129.12 303.119 129.772 272.743C151.749 273.831 163.034 289.189 163.034 289.189L157.842 305.339Z" fill="#FEC272"/>
</g>
</g>
<path d="M251.572 291.352C251.572 291.352 245.166 298.593 244.331 304.442C243.495 310.291 244.191 317.533 237.368 319.9C230.544 322.267 212.562 323.66 207.009 316.558C201.456 309.456 205.199 298.036 215.225 289.402C228.716 277.426 244.052 276.451 244.052 276.451L251.572 291.352Z" fill="#FEC272"/>
<mask id="mask2_9_68" style="mask-type:luminance" maskUnits="userSpaceOnUse" x="204" y="276" width="48" height="46">
<path d="M251.572 291.352C251.572 291.352 245.166 298.593 244.331 304.442C243.495 310.291 244.191 317.533 237.368 319.9C230.544 322.267 212.562 323.66 207.009 316.558C201.456 309.456 205.199 298.036 215.225 289.402C228.716 277.426 244.052 276.451 244.052 276.451L251.572 291.352Z" fill="white"/>
</mask>
<g mask="url(#mask2_9_68)">
<g style="mix-blend-mode:multiply" opacity="0.45">
<path d="M244.944 283.475C244.944 283.475 230.065 308.146 203.214 293.919C214.055 274.771 232.846 271.581 232.846 271.581L244.944 283.475Z" fill="#FEC272"/>
</g>
</g>
<path d="M167.185 184.836C163.269 184.966 150.818 184.057 145.622 199.384C140.426 214.711 136.4 225.887 129.385 235.887C122.37 245.888 115.224 264.074 129.385 276.795C143.546 289.515 160.166 286.421 167.829 282.648C175.493 278.875 184.593 272.639 182.382 251.345C180.171 230.052 173.417 217.053 172.638 205.359C171.859 193.666 170.667 189.771 167.185 184.836Z" fill="#FF8D76"/>
<path d="M203.741 174.391C183.413 173.565 166.894 181.285 159.374 191.52C151.854 201.756 147.467 226.614 146.527 234.029C145.587 241.445 142.245 245.414 138.694 250.323C134.886 255.588 128.354 271.838 135.351 282.7C142.349 293.563 153.751 296.348 165.88 290.394C178.1 295.181 188.483 297.636 208.223 294.311C227.963 290.986 246.915 274.227 251.742 240.557C254.527 221.061 254.562 197.247 245.214 184.853C229.621 180.58 222.985 175.157 203.741 174.391Z" fill="#FEC272"/>
<path d="M245.166 184.836C249.344 184.975 262.713 184 268.283 200.433C273.853 216.866 278.157 228.842 285.691 239.565C293.224 250.288 300.87 269.784 285.691 283.431C270.511 297.079 252.686 293.737 244.47 289.698C236.253 285.66 226.505 278.975 228.873 256.137C231.24 233.298 238.482 219.372 239.317 206.839C240.153 194.306 241.406 190.128 245.166 184.836Z" fill="#FF8D76"/>
<path d="M203 238.381C199.885 238.381 196.93 241.496 196.93 238.381C196.93 235.266 199.455 232.741 202.57 232.741C205.685 232.741 208.21 235.266 208.21 238.381C208.21 241.496 206.115 238.381 203 238.381Z" fill="#1C3177"/>
<path d="M156.754 237.5C153.639 237.5 151.114 241.496 151.114 238.381C151.114 235.266 153.639 232.741 156.754 232.741C159.869 232.741 162.394 235.266 162.394 238.381C162.394 241.496 159.869 237.5 156.754 237.5Z" fill="#1C3177"/>
<path d="M211.4 224.059C211.835 222.014 206.761 219.498 204.176 217.61C201.591 215.721 197.696 214.999 195.646 218.445C193.597 221.892 200.62 225.134 203.21 225.687C205.799 226.239 210.939 226.3 211.4 224.059Z" fill="#FF8D76"/>
<path d="M151.118 223.293C150.949 221.409 155.374 219.416 157.685 217.849C159.996 216.282 163.295 215.847 164.696 219.102C166.097 222.358 159.979 224.895 157.781 225.252C155.583 225.608 151.305 225.36 151.118 223.293Z" fill="#FF8D76"/>
<path d="M175.154 256.903C174.753 254.553 158.181 253.769 156.754 256.903C155.326 260.036 159.8 268.078 164.396 268.078C168.991 268.078 176.198 263.065 175.154 256.903Z" fill="#1C3177"/>
<path d="M163.956 261.394C163.784 265.859 163.988 270.331 164.565 274.763" stroke="#1C3177" stroke-width="7" stroke-miterlimit="10" stroke-linecap="round"/>
<g style="mix-blend-mode:multiply">
<path d="M228.168 319.917C228.168 319.917 226.218 314.695 228.603 310" stroke="#FEC272" stroke-width="7" stroke-miterlimit="10" stroke-linecap="round"/>
</g>
<g style="mix-blend-mode:multiply">
<path d="M212.784 318.873C212.132 315.869 212.547 312.731 213.959 310" stroke="#FEC272" stroke-width="7" stroke-miterlimit="10" stroke-linecap="round"/>
</g>
<g style="mix-blend-mode:multiply">
<path d="M132.436 319.917C132.436 319.917 130.486 314.695 132.871 310" stroke="#FEC272" stroke-width="7" stroke-miterlimit="10" stroke-linecap="round"/>
</g>
<g style="mix-blend-mode:multiply">
<path d="M117.052 318.873C116.397 315.869 116.811 312.731 118.223 310" stroke="#FEC272" stroke-width="7" stroke-miterlimit="10" stroke-linecap="round"/>
</g>
<path opacity="0.53" d="M91.115 373.084C85.8928 368.636 67.7412 369.072 57.1139 369.072C46.4867 369.072 25.5369 369.546 19.7707 376.857C14.0045 384.168 30.015 391.949 54.7988 391.949C79.5826 391.949 106.603 386.287 91.115 373.084Z" fill="#99ADF9"/>
</svg>
