<svg width="94" height="96" viewBox="0 0 94 96" fill="none" xmlns="http://www.w3.org/2000/svg">
<path d="M25.0222 43.4543C25.1545 45.0096 24.6253 46.4656 23.6331 47.7892C23.2362 48.2856 22.9055 48.8151 22.5747 49.3776C19.7635 54.0104 15.6623 56.8562 10.4367 58.0144C8.0554 58.5439 5.6741 58.1799 3.62353 56.7901C2.43288 55.9959 1.44067 54.97 0.845341 53.6133C0.084647 51.8264 -0.279164 50.0394 0.250015 48.0871C1.20915 44.5463 3.06128 41.6343 5.97176 39.4172C7.82388 37.9942 9.90752 37.0015 12.1896 36.439C14.9016 35.744 17.6137 35.9095 20.2927 36.6706C23.0047 37.3986 25.3529 40.443 25.0222 43.4543Z" fill="#F0E3CE"/>
<path d="M36.2012 62.5479C37.5242 64.6989 37.921 67.0484 37.5572 69.5302C36.8958 73.8983 35.1759 77.803 32.7285 81.4761C31.2402 83.6933 29.355 85.5464 27.3705 87.3002C25.9153 88.5908 24.1624 89.3519 22.2772 89.782C20.9542 90.0799 19.5652 90.0468 18.2091 89.6828C14.4057 88.6239 12.2889 85.9766 11.429 82.2703C11.2306 81.4762 11.3298 80.5827 11.2967 79.7554C11.2637 76.7441 11.9913 73.8983 13.2481 71.1848C14.2403 69.0669 15.2656 66.9822 16.7539 65.1622C19.2675 62.0516 22.3103 59.5036 25.9484 57.8159C28.3627 56.7239 30.6448 57.2534 32.6292 58.7756C34.0183 59.7683 35.2751 61.0588 36.2012 62.5479Z" fill="#F0E3CE"/>
<path d="M67.4889 75.619C68.1173 78.4979 67.7866 81.3107 67.0259 84.0572C66.4967 85.9434 65.9014 87.7966 64.843 89.4842C64.0492 90.7417 63.1562 91.933 62.0317 92.8926C60.2788 94.3817 58.2613 95.1428 55.9462 95.2752C53.3334 95.4075 51.0844 94.5472 49.0338 93.025C48.1077 92.3632 47.3801 91.5028 46.884 90.51C45.9249 88.5907 45.2965 86.6053 45.2634 84.4543C45.2634 83.5609 45.2634 82.6674 45.2634 82.0718C45.098 78.7626 45.528 75.8506 46.4871 73.0379C47.5124 70.1258 49.133 67.644 51.5143 65.6585C54.3587 63.2759 58.3936 63.4745 61.1718 66.0556C61.9987 66.8167 62.7594 67.6109 63.5862 68.372C65.8021 70.2913 66.8936 72.8393 67.4889 75.619Z" fill="#F0E3CE"/>
<path d="M78.7999 44.7118C75.6579 47.8554 72.3837 50.8337 68.8117 53.481C65.802 55.7312 62.66 57.7828 59.1211 59.1396C57.1367 59.9007 55.1192 60.5294 52.9694 60.397C51.6465 60.3308 50.3566 60.4301 49.0336 60.0992C47.3138 59.669 45.7593 58.941 44.3041 57.9814C41.3606 56.0621 39.1777 53.4148 37.3917 50.4696C35.1096 46.6972 33.3567 42.6932 32.0669 38.4906C30.9754 35.016 30.0824 31.4753 29.4871 27.9014C29.0241 25.1879 28.6272 22.5075 28.2634 19.761C28.1311 18.7682 28.2303 17.7424 28.2303 16.7497H28.1642C28.1642 16.6835 28.1642 16.6504 28.1642 16.5842C28.0319 14.4995 28.2634 12.4809 29.3548 10.5947C29.6856 9.99904 29.8509 9.33722 30.1155 8.6754C31.703 4.77063 34.5474 2.25569 38.6485 1.32913C41.1952 0.766582 43.7419 0.766582 46.3547 1.16368C49.2982 1.59386 52.1426 2.32187 54.9538 3.21534C57.8643 4.14189 60.7417 5.20082 63.6853 5.99501C67.5549 7.05393 71.2922 8.47685 75.1618 9.56886C77.3778 10.1976 79.5937 10.9587 81.6443 12.0507C84.0917 13.3082 86.2084 14.9296 87.7629 17.2129C89.0197 19.066 89.8796 21.0846 90.1442 23.3348C90.6072 27.405 89.3835 31.0451 87.3991 34.4866C86.0761 36.7699 84.4555 38.8546 82.5703 40.7408C81.2143 42.0645 80.0567 43.4212 78.7999 44.7118Z" fill="#F0E3CE"/>
<path d="M85.977 51.297C88.8544 52.1242 90.9049 53.9112 92.2279 56.5254C93.3524 58.7094 93.8485 61.0589 93.9146 63.5407C93.9808 66.552 93.2862 69.2986 91.8641 71.9128C90.3758 74.6594 88.0937 76.5125 85.1171 77.3067C81.6112 78.2332 78.4693 77.4721 75.7903 74.891C73.1775 72.4092 72.086 69.3317 71.9207 65.824C71.7553 61.6214 73.0121 57.8159 75.1288 54.2421C76.0549 52.7199 77.5101 51.9257 79.1969 51.3962C80.3875 51.0322 81.6112 51.1646 82.9011 51.0653C83.8933 51.1646 84.9517 50.9991 85.977 51.297Z" fill="#F0E3CE"/>
<path d="M87.3329 34.5528C86.01 36.8361 84.3894 38.9208 82.5042 40.807C81.2474 42.0645 80.0567 43.4543 78.7999 44.7118C75.6579 47.8554 72.3836 50.8337 68.8117 53.481C65.802 55.7312 62.66 57.7828 59.1211 59.1396C57.1367 59.9007 55.1192 60.5294 52.9694 60.397C51.6465 60.3308 50.3566 60.4301 49.0336 60.0992C47.3138 59.669 45.7593 58.941 44.3041 57.9814C41.3606 56.0621 39.1777 53.4148 37.3917 50.4696C35.1096 46.6972 33.3567 42.6932 32.0669 38.4906C30.9754 35.016 30.0824 31.4753 29.4871 27.9014C29.0241 25.1879 28.6272 22.5075 28.2634 19.761C28.1311 18.7682 28.2303 17.7424 28.2303 16.7497H28.1642C28.1642 16.6835 28.1642 16.6504 28.1642 16.5842C28.0319 14.4995 28.2634 12.4809 29.3548 10.5947C29.6856 9.99904 29.8509 9.33722 30.1155 8.6754C31.703 4.77063 34.5474 2.25569 38.6485 1.32913C41.1952 0.766582 43.7419 0.766582 46.3547 1.16368C49.2982 1.59386 52.1426 2.32187 54.9538 3.21534C57.8643 4.14189 60.7417 5.20082 63.6853 5.99501C67.5549 7.05393 71.2922 8.47685 75.1618 9.56886C77.3778 10.1976 79.5937 10.9587 81.6443 12.0507C84.0917 13.3082 86.2084 14.9296 87.7629 17.2129C89.0197 19.066 89.8796 21.0846 90.1442 23.3348C90.5411 27.4712 89.3174 31.0782 87.3329 34.5528Z" fill="#F0E3CE"/>
<path d="M37.524 69.5633C36.8625 73.9313 35.1427 77.8361 32.6953 81.5092C31.2069 83.7263 29.3218 85.5794 27.3373 87.3333C25.8821 88.6238 24.1292 89.3849 22.244 89.8151C20.921 90.1129 19.5319 90.0798 18.1759 89.7158C14.3725 88.6569 12.2557 86.0096 11.3958 82.3034C11.1974 81.5092 11.2966 80.6158 11.2635 79.7885C11.2305 76.7772 11.9581 73.9313 13.2149 71.2178C14.2071 69.1 15.2324 67.0152 16.7207 65.1952C19.2343 62.0846 22.2771 59.5366 25.9152 57.849C28.3295 56.7569 30.6116 57.2864 32.596 58.8086C33.9851 59.8344 35.2089 61.125 36.1349 62.6141C37.524 64.6989 37.9209 67.0483 37.524 69.5633Z" fill="#F0E3CE"/>
<path d="M67.0259 84.0903C66.4967 85.9765 65.9014 87.8296 64.843 89.5173C64.0492 90.7747 63.1562 91.966 62.0317 92.9257C60.2788 94.4148 58.2613 95.1759 55.9462 95.3082C53.3334 95.4406 51.0844 94.5802 49.0338 93.058C48.1077 92.3962 47.3801 91.5358 46.884 90.5431C45.9249 88.6238 45.2965 86.6383 45.2634 84.4874C45.2634 83.5939 45.2634 82.7005 45.2634 82.1048C45.098 78.7957 45.528 75.8837 46.4871 73.0709C47.5124 70.1589 49.133 67.677 51.5143 65.6916C54.3587 63.309 58.3936 63.5075 61.1718 66.0887C61.9987 66.8498 62.7594 67.644 63.5862 68.405C65.7691 70.3574 66.8274 72.9055 67.4558 75.6851C68.1173 78.4979 67.7866 81.3106 67.0259 84.0903Z" fill="#F0E3CE"/>
<path d="M93.9146 63.5738C93.9808 66.5851 93.2862 69.3317 91.8641 71.9459C90.3758 74.6925 88.0937 76.5456 85.1171 77.3397C81.6112 78.2663 78.4693 77.5052 75.7903 74.9241C73.1775 72.4422 72.086 69.3648 71.9207 65.8571C71.7553 61.6545 73.0121 57.849 75.1288 54.2751C76.0549 52.7529 77.5101 51.9588 79.1969 51.4293C80.3875 51.0653 81.6112 51.1977 82.9011 51.0984C83.8603 51.1315 84.9186 50.9991 85.9439 51.2969C88.8213 52.1242 90.8719 53.9111 92.1948 56.5253C93.3524 58.7425 93.8485 61.0589 93.9146 63.5738Z" fill="#F0E3CE"/>
<path d="M25.0222 43.4543C25.1545 45.0096 24.6253 46.4656 23.6331 47.7892C23.2362 48.2856 22.9055 48.8151 22.5747 49.3776C19.7635 54.0104 15.6623 56.8562 10.4367 58.0144C8.0554 58.5439 5.6741 58.1799 3.62353 56.7901C2.43288 55.9959 1.44067 54.97 0.845341 53.6133C0.084647 51.8264 -0.279164 50.0394 0.250015 48.0871C1.20915 44.5463 3.06128 41.6343 5.97176 39.4172C7.82388 37.9942 9.90752 37.0015 12.1896 36.439C14.9016 35.744 17.6137 35.9095 20.2927 36.6706C23.0047 37.3986 25.3529 40.443 25.0222 43.4543Z" fill="#F0E3CE"/>
</svg>
