<svg width="81" height="91" viewBox="0 0 81 91" fill="none" xmlns="http://www.w3.org/2000/svg">
<path d="M79.3833 69.2882C78.325 71.4391 76.7044 73.0936 74.8853 74.5497C72.8348 76.2042 70.5527 77.561 68.1714 78.7523C66.0877 79.7781 64.0041 80.837 61.9204 81.8628C57.6209 83.9807 53.2882 86.0985 48.9556 88.1502C47.0042 89.0767 45.0529 89.9702 42.87 90.3342C39.3642 90.8967 36.0238 90.5989 32.981 88.6134C31.3273 87.5545 30.0044 86.0654 29.0452 84.3447C27.6561 81.8628 26.9616 79.1824 26.4986 76.4028C26.1678 74.2518 26.3001 72.0678 26.234 69.9169C26.234 68.6925 26.1347 67.4681 26.267 66.2768C26.4324 64.1921 26.4655 62.0743 26.7631 59.9564C26.9285 58.7982 26.9947 57.64 27.16 56.4818C27.7884 52.3454 28.7476 48.2752 30.7981 44.569C32.518 41.4584 34.9323 39.1089 38.4051 37.9838C40.0588 37.4213 41.8117 37.1235 43.5315 37.1896C45.4828 37.2558 47.4011 37.5536 49.2863 38.05C54.8096 39.5391 59.8037 42.1202 64.5663 45.1977C68.0721 47.481 71.4126 49.996 74.5546 52.7094C75.4476 53.4705 76.2413 54.3309 77.0351 55.1582C77.5974 55.7207 78.0604 56.4157 78.325 57.1437C78.9534 58.732 79.5818 60.2873 80.0448 61.9088C80.8717 64.4237 80.574 66.9056 79.3833 69.2882Z" fill="#F0E3CE"/>
<path d="M53.7844 18.0629C53.9167 20.6441 53.4206 23.0928 52.6599 25.5416C51.8 28.2881 49.7163 29.8103 46.9051 29.8434C46.2105 29.8434 45.516 29.8103 44.8545 29.8103C42.0763 29.8103 39.7942 28.6521 38.1736 26.4681C35.8254 23.3575 34.304 19.7837 33.6425 15.9451C33.2787 13.8604 33.1795 11.7425 33.3118 9.62468C33.4441 7.44065 34.0064 5.35591 35.197 3.5028C35.7262 2.64242 36.4538 1.94751 37.3468 1.41805C38.5374 0.723133 39.7942 0.193672 41.1833 0.0282154C42.2417 -0.10415 43.3001 0.160581 44.2923 0.458403C45.6152 0.855498 46.7728 1.5835 47.7981 2.54315C49.8486 4.46244 51.2047 6.84501 52.2299 9.42613C53.0568 11.4447 53.5529 13.5625 53.8175 15.7135C53.8836 16.4746 53.7844 17.2688 53.7844 18.0629Z" fill="#F0E3CE"/>
<path d="M31.0296 35.3034C31.0296 35.7336 31.0296 36.1638 31.0296 36.5609C30.9304 39.8039 28.2515 42.4512 25.0433 42.5173C23.985 42.5504 22.9266 42.4842 21.9013 42.749C21.2729 42.9144 20.6445 42.6166 20.0161 42.5504C17.3371 42.2195 15.1543 40.8628 13.2029 39.1089C11.1854 37.2558 9.79635 34.9725 8.77107 32.4245C8.04345 30.6045 7.44812 28.7514 7.54734 26.7328C7.74579 22.6957 9.92865 19.3204 14.1952 18.0629C16.6426 17.3349 18.8916 17.8644 21.0414 19.0887C22.1659 19.7175 23.092 20.5778 24.018 21.4051C25.8702 23.0597 27.4577 25.0121 28.7145 27.163C30.2028 29.6779 31.1619 32.3583 31.0296 35.3034Z" fill="#F0E3CE"/>
<path d="M20.81 64.3576C20.5785 64.5893 20.3469 64.7878 20.1485 65.0525C18.4948 67.3358 16.2789 68.3617 13.5999 68.2955C10.6894 68.3617 8.3412 67.2035 6.25756 65.5158C3.51244 63.2656 1.75954 60.3867 1.03192 56.879C0.3043 53.2721 1.82569 47.7789 7.11747 46.2236C7.31592 46.1574 7.51436 46.0582 7.7128 46.0582C9.39956 45.992 11.0863 45.8265 12.74 46.2898C13.6661 46.5545 14.526 46.9185 15.3197 47.448C17.1057 48.6062 18.6602 50.0291 19.8178 51.8491C21.0746 53.7684 22.0337 55.787 22.5629 58.0372C23.1251 60.4529 22.6621 62.6038 20.81 64.3576Z" fill="#F0E3CE"/>
<path d="M76.6714 23.6222C76.7045 25.707 76.2414 27.6925 75.4146 29.6118C74.1578 32.5238 72.1403 34.774 69.3621 36.2962C66.9477 37.6198 64.5664 37.3882 62.3836 35.7998C60.9614 34.774 60.1676 33.2187 59.9361 31.498C59.8038 30.6707 59.6385 29.8434 59.4731 29.0161C59.2746 28.0896 59.2416 27.1299 59.2085 26.1703C59.2746 22.5302 60.2999 19.188 62.4828 16.276C64.6657 13.364 68.7668 12.2058 72.0742 14.1251C73.1987 14.7869 74.0916 15.6803 74.7531 16.7724C76.0099 18.9233 76.6383 21.2066 76.6714 23.6222Z" fill="#F0E3CE"/>
</svg>
