<svg width="54" height="55" viewBox="0 0 54 55" fill="none" xmlns="http://www.w3.org/2000/svg">
<rect y="0.919983" width="54" height="54" rx="5" fill="#005ED2"/>
<path d="M43.9409 33.2774C43.9332 33.196 43.9236 33.1146 43.9139 33.0332C43.9023 32.9518 43.8907 32.8723 43.8753 32.7929C43.8618 32.7154 43.8444 32.6379 43.827 32.5603C43.8097 32.4828 43.7884 32.4072 43.7672 32.3317C43.746 32.258 43.7228 32.1844 43.6996 32.1127C43.6977 32.1088 43.6977 32.1069 43.6958 32.103C43.6707 32.0332 43.6437 31.9615 43.6166 31.8918C43.5877 31.822 43.5568 31.7503 43.524 31.6805C43.4622 31.5449 43.3927 31.4131 43.3155 31.2833C43.3136 31.2813 43.3136 31.2794 43.3097 31.2755C43.2711 31.2096 43.2287 31.1457 43.1862 31.0817C43.1437 31.0178 43.0993 30.9538 43.0511 30.8918C43.0047 30.8298 42.9565 30.7697 42.9063 30.7096C42.8619 30.6554 42.8175 30.6031 42.7692 30.5507C42.7113 30.4848 42.6496 30.4228 42.5859 30.3589C42.5492 30.3221 42.5106 30.2852 42.4701 30.2465C42.4257 30.2058 42.3793 30.1651 42.333 30.1244C42.2925 30.0915 42.2539 30.0566 42.2114 30.0236C42.0801 29.9151 41.9412 29.8105 41.7945 29.7116C41.7462 29.6787 41.6979 29.6477 41.6478 29.6147C41.6478 29.6128 41.6458 29.6128 41.6439 29.6128C41.5937 29.5799 41.5435 29.5488 41.4914 29.5178C41.4393 29.4868 41.3872 29.4539 41.3331 29.4248C41.225 29.3609 41.115 29.3008 41.0011 29.2446C40.9432 29.2155 40.8853 29.1865 40.8274 29.1593C40.7714 29.1322 40.7135 29.1051 40.6575 29.0799C40.6537 29.076 40.6498 29.0741 40.644 29.0741C40.5842 29.0469 40.5263 29.0217 40.4664 28.9965C40.4047 28.9694 40.341 28.9442 40.2792 28.919C40.2155 28.8919 40.1518 28.8667 40.0862 28.8415C39.7271 28.7039 39.3507 28.5799 38.9743 28.5315C38.8006 28.5082 38.6288 28.4811 38.4628 28.4501C38.3856 28.4346 38.3084 28.4191 38.2312 28.4016C38.2215 28.3997 38.2099 28.3958 38.1983 28.3939C38.1346 28.3784 38.0709 28.3629 38.0092 28.3474C37.9841 28.3415 37.959 28.3338 37.9358 28.328C37.7119 28.2679 37.4957 28.1981 37.2872 28.1187C37.2139 28.0915 37.1425 28.0625 37.0691 28.0315C36.9977 28.0005 36.9263 27.9695 36.8568 27.9365C36.7873 27.9055 36.7178 27.8726 36.6483 27.8357C36.5808 27.8009 36.5132 27.766 36.4476 27.7292C36.38 27.6923 36.3144 27.6536 36.2488 27.6148C36.1194 27.5354 35.994 27.454 35.8704 27.3668C35.8183 27.33 35.7681 27.2931 35.7179 27.2563C35.7006 27.2427 35.6832 27.2311 35.6677 27.2176C35.6176 27.1788 35.5674 27.14 35.5172 27.0993C35.5114 27.0955 35.5075 27.0916 35.5037 27.0897C35.4496 27.0451 35.3956 27.0005 35.3435 26.9559C35.1697 26.8028 35.0018 26.6439 34.8416 26.4753C34.7914 26.4211 34.7412 26.3668 34.6929 26.3126C34.6389 26.2525 34.5868 26.1924 34.5347 26.1304C34.4845 26.0703 34.4343 26.0102 34.386 25.9502C34.3436 25.8959 34.3011 25.8417 34.2606 25.7874C34.222 25.737 34.1833 25.6847 34.1467 25.6324C34.1081 25.58 34.0695 25.5277 34.0347 25.4734C33.9652 25.3766 33.8977 25.2758 33.834 25.1731C33.8205 25.1537 33.8089 25.1343 33.7973 25.1149C33.7432 25.0316 33.6911 24.9463 33.6409 24.8591C33.6197 24.8243 33.6004 24.7894 33.5792 24.7526C33.5232 24.6576 33.4711 24.5626 33.417 24.4638C33.3514 24.3398 33.2858 24.2138 33.2221 24.0859C33.1835 24.0103 33.1449 23.9328 33.1024 23.8572C33.0831 23.8185 33.0619 23.7797 33.0406 23.741C33.0348 23.7293 33.0271 23.7177 33.0213 23.7061C32.9383 23.5569 32.8515 23.4096 32.7588 23.2623C32.697 23.1615 32.6333 23.0646 32.5677 22.9658C32.5059 22.8747 32.4442 22.7856 32.3805 22.6964C32.2685 22.5375 32.1527 22.3825 32.033 22.2294C31.95 22.1248 31.867 22.0201 31.7821 21.9174C31.5968 21.6946 31.4057 21.4775 31.2107 21.2663C31.1547 21.2062 31.1007 21.1481 31.0409 21.0919C31.0293 21.0783 31.0158 21.0628 30.9984 21.0492C30.8671 20.9155 30.7301 20.7896 30.5911 20.6733C30.456 20.5551 30.3189 20.4485 30.1799 20.3496C30.178 20.3458 30.1761 20.3438 30.1722 20.3438C30.0332 20.2431 29.8904 20.15 29.7476 20.0687C29.6761 20.026 29.6047 19.9873 29.5314 19.9485C29.46 19.9097 29.3866 19.8749 29.3132 19.84C29.2418 19.807 29.1685 19.7741 29.0951 19.745C29.0218 19.716 28.9484 19.6869 28.8751 19.6617C28.7264 19.6094 28.5797 19.5667 28.4311 19.5338C28.2825 19.497 28.1338 19.4718 27.9852 19.4563C27.9099 19.4485 27.8347 19.4427 27.7613 19.4369C26.9313 19.3865 26.1013 19.6055 25.3214 20.1035C24.8717 20.3903 24.4567 20.745 24.0667 21.1287C24.0166 21.1771 23.9683 21.2256 23.9239 21.274C23.8235 21.3729 23.727 21.4736 23.6324 21.5763C23.4008 21.8244 23.1769 22.0821 22.9568 22.336C22.4183 22.9619 22.0419 23.7352 21.6307 24.4638C21.3566 24.9502 21.0652 25.4153 20.7486 25.8436C20.7486 25.8436 20.7486 25.8442 20.7486 25.8455C20.708 25.8978 20.6675 25.9502 20.627 26.0025C20.5864 26.0548 20.5459 26.1071 20.5034 26.1575C20.4204 26.2602 20.3355 26.361 20.2486 26.4579C20.1174 26.6032 19.9823 26.7447 19.8414 26.8765C19.7468 26.9676 19.6503 27.0528 19.5518 27.1342C19.5055 27.173 19.4572 27.2117 19.409 27.2505C19.4032 27.2544 19.3993 27.2583 19.3935 27.2621C19.3511 27.2931 19.3105 27.3261 19.2681 27.3571C19.2526 27.3687 19.2372 27.3784 19.2217 27.39C19.1773 27.421 19.1329 27.452 19.0866 27.483C18.5481 27.8454 17.9323 28.1167 17.2181 28.2679C17.0791 28.297 16.9363 28.3222 16.7896 28.3415C16.0657 28.4384 15.3477 28.6884 14.6701 28.9694C14.4539 29.0586 14.2455 29.1555 14.0466 29.2582C14.0447 29.2582 14.0447 29.2601 14.0447 29.2601C13.9463 29.3105 13.8498 29.3647 13.7532 29.419C13.5641 29.5275 13.3826 29.6419 13.2128 29.764C12.956 29.9461 12.7205 30.1418 12.5082 30.3511C12.4484 30.4093 12.3924 30.4674 12.3364 30.5275C12.2804 30.5856 12.2283 30.6457 12.1762 30.7058C12.1743 30.7058 12.1704 30.7116 12.1704 30.7155C12.1202 30.7717 12.0739 30.8298 12.0295 30.8879C12.0256 30.8918 12.0218 30.8957 12.0198 30.9015C11.9716 30.9635 11.9253 31.0255 11.8809 31.0895C11.8365 31.1573 11.7921 31.2232 11.7515 31.291C11.711 31.353 11.6743 31.417 11.6396 31.4829C11.6319 31.4906 11.6261 31.5022 11.6222 31.5119C11.5971 31.5565 11.572 31.603 11.5508 31.6495C11.4639 31.8201 11.3886 31.9964 11.3249 32.1766C11.3076 32.227 11.2902 32.2774 11.2748 32.3297C11.267 32.3491 11.2593 32.3704 11.2535 32.3937C11.2381 32.446 11.2226 32.5003 11.2091 32.5526C11.2053 32.5681 11.1995 32.5855 11.1956 32.6049C11.1782 32.6766 11.1609 32.7483 11.1474 32.822C11.1319 32.9014 11.1184 32.9809 11.1068 33.0623C11.0972 33.1204 11.0895 33.1785 11.0837 33.2405C11.0779 33.2832 11.074 33.3258 11.0721 33.3704C11.0084 34.1126 11.1088 34.9129 11.3809 35.7559C12.1608 38.1628 13.0468 40.5968 14.3034 42.7731C14.3941 42.93 14.4848 43.0831 14.5775 43.2362C14.7647 43.5366 14.9558 43.8311 15.1527 44.116C15.2511 44.2575 15.3496 44.3989 15.4519 44.5365C15.6546 44.8137 15.863 45.0811 16.0773 45.3388C16.0773 45.3388 16.0773 45.3395 16.0773 45.3408C16.3997 45.7283 16.7336 46.0946 17.081 46.4396C17.193 46.552 17.3069 46.6605 17.4208 46.7671C17.4285 46.7748 17.4362 46.7826 17.442 46.7864C17.6775 47.0074 17.9169 47.2166 18.1639 47.4163C18.2798 47.5131 18.3975 47.6062 18.5172 47.6973C18.5249 47.7031 18.5326 47.7089 18.5403 47.7147C18.9225 48.0054 19.3182 48.2747 19.7275 48.5228C19.7989 48.5654 19.8722 48.61 19.9437 48.6526C20.0093 48.6895 20.0749 48.7263 20.1405 48.7631C20.21 48.8019 20.2795 48.8406 20.3509 48.8774C20.3896 48.8987 20.4282 48.9201 20.4668 48.9394C20.5691 48.9937 20.6733 49.046 20.7756 49.0964C20.849 49.1313 20.9204 49.1662 20.9937 49.2011C21.1385 49.2689 21.2852 49.3348 21.4319 49.3968C21.5053 49.4297 21.5805 49.4607 21.6558 49.4898C21.8045 49.5518 21.955 49.61 22.1075 49.6642C22.1847 49.6933 22.26 49.7204 22.3372 49.7456C22.5688 49.8251 22.8024 49.8987 23.0398 49.9685C23.119 49.9917 23.1981 50.013 23.2773 50.0344C23.3583 50.0557 23.4375 50.077 23.5185 50.0983C23.6807 50.139 23.8428 50.1758 24.0069 50.2126C24.2656 50.2669 24.5281 50.3173 24.7945 50.3599C24.8659 50.3715 24.9373 50.3832 25.0087 50.3929C25.0975 50.4064 25.1863 50.4181 25.277 50.4316C25.3581 50.4413 25.4411 50.4529 25.5241 50.4607C25.7828 50.4917 26.0453 50.515 26.3117 50.5343C26.6668 50.5576 27.0278 50.5711 27.3945 50.575C31.0775 50.6196 34.3687 49.5499 37.1734 47.1217C37.2776 47.0306 37.3799 46.9395 37.4822 46.8485C37.4957 46.8349 37.5112 46.8233 37.5247 46.8097C37.6231 46.7205 37.7196 46.6295 37.8142 46.5384C37.9184 46.4396 38.0208 46.3407 38.1231 46.24C38.4223 45.9396 38.7079 45.6334 38.984 45.3195C38.9917 45.3078 39.0013 45.2981 39.0091 45.2884C39.0959 45.1896 39.1809 45.0888 39.2639 44.9881C39.3295 44.9086 39.3951 44.8292 39.4588 44.7497C39.5032 44.6954 39.5457 44.6412 39.5881 44.5869C39.6538 44.5036 39.7194 44.4183 39.7831 44.3331C39.8449 44.2536 39.9066 44.1703 39.9645 44.0889C40.0089 44.0307 40.0514 43.9726 40.0919 43.9145C40.2483 43.6974 40.3989 43.4784 40.5417 43.2556C40.6054 43.1606 40.6672 43.0637 40.727 42.9688C40.9258 42.6548 41.1131 42.3351 41.2926 42.0115C41.3543 41.9029 41.4142 41.7925 41.4721 41.682C41.5319 41.5735 41.5898 41.4611 41.6458 41.3506C41.696 41.2518 41.7462 41.153 41.7945 41.0541C41.8369 40.9669 41.8794 40.8797 41.9199 40.7925C41.9624 40.7073 42.0029 40.62 42.0415 40.5309C42.0724 40.465 42.1033 40.3991 42.1323 40.3332C42.1844 40.2189 42.2346 40.1046 42.2828 39.9883C42.4816 39.5271 42.665 39.0562 42.8368 38.5794C42.8696 38.4884 42.9024 38.3953 42.9353 38.3023C43.0144 38.0717 43.0916 37.8411 43.165 37.6066C43.1997 37.4981 43.2344 37.3896 43.2673 37.2811C43.3908 36.876 43.5066 36.4671 43.6128 36.0544C43.6495 35.9168 43.6842 35.7792 43.7189 35.6397C43.7595 35.4749 43.7962 35.3122 43.827 35.1513C43.8579 34.9924 43.883 34.8354 43.9023 34.6804C43.9139 34.6029 43.9216 34.5254 43.9293 34.4498C43.9699 34.0409 43.9737 33.6494 43.9409 33.2774ZM35.8608 36.4168C35.8588 36.4419 35.8569 36.4671 35.8569 36.4923C35.855 36.5195 35.853 36.5427 35.8492 36.566C35.8453 36.6125 35.8415 36.6551 35.8337 36.6977C35.828 36.7326 35.8222 36.7675 35.8144 36.7985C35.8086 36.8237 35.8029 36.8508 35.7951 36.8741C35.7739 36.9458 35.7469 37.0078 35.7102 37.0601C35.6986 37.0776 35.6851 37.095 35.6716 37.1105C35.6446 37.1415 35.6137 37.1687 35.5789 37.1919C35.5442 37.2132 35.5075 37.2326 35.4651 37.25C35.4129 37.2714 35.355 37.2869 35.2894 37.2985C35.2508 37.3062 35.2103 37.314 35.1678 37.3179C34.8261 37.3624 34.3185 37.345 33.5637 37.3469C33.2337 37.3489 32.9036 37.3547 32.5716 37.3586C32.4094 37.3605 32.2473 37.3644 32.0851 37.3663C31.84 37.3702 31.5948 37.3702 31.3516 37.3663C31.2725 37.3663 31.1933 37.3663 31.1142 37.3644H31.1084C30.9463 37.3605 30.7841 37.3566 30.6239 37.3489C30.512 37.345 30.3981 37.3392 30.2861 37.3314C30.1491 37.3217 30.0255 37.3217 29.9174 37.3314C29.8904 37.3314 29.8634 37.3373 29.8383 37.3411C29.7977 37.3469 29.7611 37.3528 29.7263 37.3605C29.6897 37.3702 29.6568 37.3779 29.626 37.3896C29.5931 37.4012 29.5642 37.4128 29.5352 37.4264C29.4793 37.4535 29.4291 37.4865 29.3847 37.5252C29.3615 37.5446 29.3422 37.564 29.3229 37.5872C29.3036 37.6086 29.2882 37.6299 29.2708 37.6551C29.2708 37.6551 29.2631 37.6667 29.2611 37.6725C29.2476 37.6919 29.238 37.7132 29.2264 37.7345C29.1279 37.9341 29.1009 38.2093 29.1164 38.5639C29.182 40.0445 29.1048 41.5328 29.1453 43.0153C29.1665 43.8195 28.85 44.1005 28.0644 44.0831C27.4081 44.0695 26.9351 44.0811 26.5935 44.0695C26.5336 44.0676 26.4757 44.0656 26.4236 44.0618C26.3734 44.0579 26.3271 44.054 26.2846 44.0463C26.2364 44.0424 26.192 44.0346 26.1514 44.023C26.1128 44.0133 26.0781 44.0036 26.0472 43.9901C26.0298 43.9842 26.0144 43.9784 26.0009 43.9687C25.9854 43.9629 25.9719 43.9532 25.9584 43.9455C25.9256 43.9242 25.8966 43.899 25.8716 43.8718C25.8465 43.8428 25.8272 43.8079 25.8079 43.7711C25.7808 43.711 25.7596 43.6393 25.7442 43.554C25.7422 43.5521 25.7422 43.5502 25.7422 43.5482C25.7306 43.4823 25.7249 43.4067 25.7191 43.3234C25.7191 43.273 25.7133 43.2207 25.7113 43.1645C25.7133 43.1568 25.7133 43.149 25.7113 43.1413C25.7075 42.9707 25.7075 42.7692 25.7094 42.5289C25.7113 42.3176 25.7113 42.0754 25.7094 41.8022C25.7017 40.8894 25.6882 39.9767 25.6998 39.0659C25.7036 38.8159 25.7094 38.5659 25.7152 38.3159C25.7364 37.6105 25.4681 37.3295 24.7616 37.3411C23.2193 37.3683 21.6751 37.3179 20.1328 37.3586C19.6889 37.3721 19.3916 37.2888 19.2082 37.0911C19.187 37.0679 19.1677 37.0446 19.1484 37.0175C19.0113 36.8218 18.9592 36.5408 18.965 36.159C18.9766 35.5641 18.9708 35.1222 18.9862 34.7967C18.994 34.6533 19.0055 34.5331 19.0229 34.4304C19.0287 34.3936 19.0364 34.3606 19.0441 34.3296C19.048 34.3161 19.0519 34.3025 19.0557 34.2909C19.1001 34.1417 19.1696 34.0448 19.2835 33.9828C19.3144 33.9673 19.3472 33.9517 19.3858 33.9401C19.3916 33.9382 19.3974 33.9362 19.4012 33.9362C19.4186 33.9304 19.436 33.9266 19.4534 33.9227C19.4765 33.9169 19.4997 33.913 19.5229 33.9091C19.546 33.9033 19.5711 33.9014 19.5981 33.8975C19.8993 33.8626 20.3471 33.8859 21.0188 33.8859C21.0922 33.8859 21.1675 33.8839 21.2466 33.8839C21.569 33.882 21.8894 33.8762 22.2098 33.8704C22.9819 33.8587 23.756 33.849 24.5242 33.8994C25.4836 33.9634 25.7538 33.568 25.7229 32.665C25.6747 31.3414 25.7191 30.0159 25.7075 28.6923C25.7075 28.5315 25.7036 28.3706 25.7017 28.2117C25.6998 28.0954 25.7036 27.9908 25.7152 27.8958C25.721 27.8571 25.7268 27.8183 25.7345 27.7834C25.7422 27.7466 25.7499 27.7137 25.7596 27.6807C25.7789 27.6148 25.804 27.5567 25.8368 27.5024C25.8677 27.4501 25.9024 27.4017 25.9449 27.361C26.1167 27.1904 26.3869 27.1148 26.7769 27.1168C27.3212 27.1187 27.7401 27.1168 28.0644 27.1304C28.186 27.1362 28.2941 27.1439 28.3886 27.1555C28.4852 27.1652 28.5682 27.1807 28.6415 27.2021C28.765 27.235 28.8577 27.2834 28.9272 27.3493C29.2109 27.6168 29.1299 28.1943 29.1337 29.452V30.6147L29.1395 31.3472C29.1453 31.9092 29.1511 32.4731 29.1279 33.0351C29.1241 33.1359 29.126 33.227 29.1376 33.3084C29.1395 33.3277 29.1434 33.3452 29.1453 33.3626C29.1472 33.3781 29.1511 33.3936 29.155 33.4091C29.1723 33.4828 29.1994 33.5467 29.2322 33.6029C29.2573 33.6436 29.2843 33.6785 29.3171 33.7095C29.3499 33.7405 29.3866 33.7676 29.4291 33.789C29.4715 33.8122 29.5179 33.8297 29.568 33.8452C29.6202 33.8607 29.6761 33.8723 29.7379 33.8781C29.8093 33.8859 29.8865 33.8897 29.9715 33.8878C31.3092 33.8684 32.6468 33.8936 33.9845 33.8839C34.2548 33.8839 34.5231 33.88 34.7933 33.8742C35.5867 33.8587 35.8859 34.1882 35.8762 34.9691C35.8685 35.6067 35.8801 36.0737 35.8608 36.4168Z" fill="white"/>
<path d="M36.8143 10.854C36.712 13.2337 35.9418 15.3053 34.2856 16.9952C33.1815 18.1211 31.8573 18.778 30.2803 18.2722C28.7225 17.7742 28.0624 16.4215 27.8327 14.941C27.3945 12.0962 28.1898 9.57495 30.178 7.47621C31.2628 6.33091 32.585 5.68559 34.1698 6.15844C35.7912 6.64291 36.3626 8.03626 36.6965 9.53619C36.793 9.97222 36.7795 10.4334 36.8143 10.854Z" fill="white"/>
<path d="M25.0916 16.9486C24.8137 17.3459 24.4334 17.8827 23.7501 18.1986C22.8621 18.6075 21.7947 18.5396 20.7967 17.9932C17.6755 16.2859 16.0425 11.3326 17.5307 8.08663C18.5113 5.94913 20.8045 5.35032 22.7637 6.77468C24.667 8.15834 25.6263 10.1175 25.9525 12.4159C26.0124 12.8306 26.0259 13.2511 26.0606 13.6697C26.0606 14.4081 25.9448 15.7278 25.0916 16.9486Z" fill="white"/>
<path d="M42.0955 25.4173C41.6959 25.7021 40.6844 26.423 39.478 26.2099C38.5804 26.051 37.7658 25.4502 37.2273 24.4541C35.7004 21.6287 36.7409 17.0785 39.3216 15.2937C40.2713 14.6368 41.2539 14.4449 42.1128 14.7065C43.1359 15.0185 43.6783 15.9196 43.9447 16.377C45.5159 19.0842 44.711 23.553 42.0955 25.4192V25.4173Z" fill="white"/>
<path d="M10.9427 16.0902C11.2342 15.658 11.6048 15.1154 12.2843 14.815C13.1375 14.4371 14.1625 14.5321 15.1025 15.1038C17.8126 16.7529 19.0789 21.5163 17.554 24.3262C16.2684 26.7002 13.6548 26.8862 11.8654 24.7313C10.6744 23.2972 10.0046 21.4058 10.0008 19.4699C9.98919 18.687 10.0992 17.342 10.9408 16.0902H10.9427Z" fill="white"/>
</svg>
